<svg width="62" height="62" viewBox="0 0 62 62" fill="none" xmlns="http://www.w3.org/2000/svg">
<path d="M18.0837 5.16699H15.5003C7.75033 5.16699 5.16699 9.79115 5.16699 15.5003V18.0836V54.2503C5.16699 56.3944 7.59533 57.6086 9.30032 56.3169L13.7178 53.0103C14.7512 52.2353 16.1978 52.3386 17.1278 53.2686L21.4162 57.5828C22.4237 58.5903 24.077 58.5903 25.0845 57.5828L29.4245 53.2428C30.3287 52.3386 31.7753 52.2353 32.7828 53.0103L37.2003 56.3169C38.9053 57.5828 41.3337 56.3686 41.3337 54.2503V10.3336C41.3337 7.49199 43.6587 5.16699 46.5003 5.16699H18.0837ZM29.0628 35.5211H17.4378C16.3787 35.5211 15.5003 34.6428 15.5003 33.5836C15.5003 32.5244 16.3787 31.6461 17.4378 31.6461H29.0628C30.122 31.6461 31.0003 32.5244 31.0003 33.5836C31.0003 34.6428 30.122 35.5211 29.0628 35.5211ZM31.0003 25.1878H15.5003C14.4412 25.1878 13.5628 24.3094 13.5628 23.2503C13.5628 22.1911 14.4412 21.3128 15.5003 21.3128H31.0003C32.0595 21.3128 32.9378 22.1911 32.9378 23.2503C32.9378 24.3094 32.0595 25.1878 31.0003 25.1878Z" fill="#06061C"/>
<path d="M46.5255 9.04199C48.2305 9.04199 49.858 9.73949 51.0463 10.9019C52.2863 12.1678 52.958 13.7953 52.958 15.5003V21.7519C52.958 23.6636 52.1055 24.5419 50.168 24.5419H45.208V10.3594C45.208 9.63616 45.8022 9.04199 46.5255 9.04199ZM46.5255 5.16699C43.658 5.16699 41.333 7.49199 41.333 10.3594V28.4169H50.168C54.2497 28.4169 56.833 25.8336 56.833 21.7519V15.5003C56.833 12.6586 55.6705 10.0753 53.8105 8.18949C51.9247 6.32949 49.3672 5.19282 46.5255 5.16699Z" fill="#06061C"/>
</svg>
