<svg width="177" height="46" viewBox="0 0 177 46" fill="none" xmlns="http://www.w3.org/2000/svg">
<path d="M34.7833 4.48354C37.5757 6.52887 39.1776 9.57231 39.4847 12.663C39.7142 15.7537 38.5733 18.7674 36.2166 21.1313C35.9644 21.3736 35.7062 21.6099 35.4451 21.8452C35.3701 21.9163 35.295 21.9873 35.2177 22.0606C33.4484 23.6699 30.6582 24.9132 28.0843 25.2134C28.6309 26.9666 29.4453 28.2959 31.0286 29.5439C31.086 29.5962 31.1433 29.6484 31.2024 29.7022C31.5176 29.9508 31.7405 30.0245 32.1763 30.0279C32.3134 30.0183 32.4504 30.0086 32.5916 29.9987C32.7039 29.9911 32.7039 29.9911 32.8185 29.9833C33.6241 29.9263 34.4271 29.8486 35.2298 29.7678C35.3929 29.7516 35.5561 29.7355 35.7193 29.7194C36.0668 29.685 36.4144 29.6504 36.7619 29.6157C37.3128 29.5607 37.8637 29.5063 38.4146 29.452C39.9799 29.2976 41.5451 29.1423 43.1102 28.9866C43.9775 28.9003 44.8448 28.8144 45.7123 28.7291C46.2587 28.6753 46.805 28.621 47.3513 28.5661C47.6922 28.5321 48.0331 28.4986 48.3741 28.4652C48.5308 28.4498 48.6875 28.4341 48.8441 28.4182C51.3249 28.1665 51.3249 28.1665 52.0424 28.4553C52.4763 28.8051 52.6759 29.0487 52.6956 29.5607C52.6842 30.2897 52.4196 30.9745 52.1857 31.6697C52.136 31.8212 52.0863 31.9726 52.0368 32.1241C51.9048 32.5268 51.771 32.929 51.6368 33.3312C51.4985 33.7465 51.3615 34.162 51.2244 34.5776C51.0611 35.0724 50.8976 35.5672 50.7334 36.0618C50.4309 36.9734 50.1345 37.886 49.8474 38.8012C49.7588 39.0812 49.6701 39.3611 49.5814 39.641C49.5289 39.808 49.4771 39.9751 49.426 40.1423C49.0856 41.2558 48.6864 42.4279 47.4843 43.0894C46.571 43.5074 45.4661 43.5729 44.4529 43.672C44.2319 43.6946 44.2319 43.6946 44.0064 43.7177C43.6054 43.7586 43.2042 43.7985 42.8029 43.8381C42.4649 43.8715 42.1268 43.9054 41.7888 43.9393C40.9881 44.0195 40.1873 44.0988 39.3864 44.1775C38.5693 44.2579 37.7525 44.34 36.9358 44.4231C36.228 44.4949 35.52 44.5655 34.8118 44.6352C34.3919 44.6765 33.9721 44.7182 33.5525 44.7613C31.8842 44.9321 30.2275 45.0661 28.5456 45.0697C28.4125 45.07 28.2794 45.0703 28.1423 45.0707C26.9955 45.0604 25.9874 44.888 24.9134 44.5565C24.8119 44.5256 24.7103 44.4947 24.6056 44.4628C23.7985 44.2143 23.0004 43.9476 22.2027 43.6783C21.9575 43.5965 21.7123 43.5147 21.4671 43.4329C20.8728 43.2347 20.279 43.0354 19.6854 42.8358C19.2235 42.6807 18.761 42.5266 18.2984 42.3728C17.5964 42.1392 16.8948 41.9048 16.1937 41.6695C16.1732 41.7252 16.1528 41.781 16.1318 41.8384C15.725 42.9168 15.1325 43.7851 14.042 44.4602C13.9739 44.5039 13.9057 44.5476 13.8355 44.5926C13.1163 44.9744 12.2504 44.9467 11.4374 44.8452C10.2216 44.4833 9.6923 43.791 9.13097 42.8547C8.69129 42.1613 8.16017 41.8574 7.36066 41.477C5.81986 40.6981 5.0099 39.6534 4.55079 38.181C4.29288 37.1908 4.28996 36.231 4.30307 35.2218C4.20147 35.1956 4.09987 35.1694 3.99519 35.1424C2.82402 34.7858 1.83469 34.0264 1.24549 33.1046C1.04973 32.6293 1.01105 32.217 0.983616 31.7152C0.953487 31.2859 0.895601 31.0149 0.615574 30.6566C0.12841 29.9959 0.256537 29.2478 0.418724 28.5102C1.08565 26.2097 1.08565 26.2097 2.0382 25.6946C2.13258 25.6838 2.22697 25.673 2.32421 25.6619C2.61755 25.6227 2.61755 25.6227 2.74968 25.4217C2.80171 25.3074 2.80171 25.3074 2.85479 25.1908C2.91489 25.0641 2.91489 25.0641 2.97619 24.9349C3.017 24.8442 3.05781 24.7535 3.09986 24.66C3.18889 24.4738 3.27839 24.2877 3.36837 24.1018C3.41185 24.0113 3.45534 23.9208 3.50014 23.8275C4.17724 22.4559 5.32474 20.6789 6.98554 20.0227C7.63089 19.8468 8.24771 19.8098 8.92174 19.8115C9.00526 19.8114 9.08878 19.8113 9.17483 19.8112C9.35119 19.8111 9.52755 19.8113 9.70391 19.8117C9.96879 19.8122 10.2336 19.8117 10.4985 19.8111C11.497 19.8108 12.4813 19.8386 13.4758 19.9205C13.4461 19.8735 13.4164 19.8264 13.3859 19.778C13.2504 19.563 13.1154 19.3478 12.9804 19.1326C12.9337 19.0586 12.887 18.9846 12.8388 18.9083C12.2301 17.9364 12.2301 17.9364 12.2301 17.5146C12.1138 17.4934 11.9974 17.4722 11.8776 17.4504C11.4015 17.3344 11.0854 17.1011 10.7367 16.8109C10.6506 16.7425 10.6506 16.7425 10.5627 16.6728C10.0664 16.2729 9.64731 15.8808 9.37781 15.3434C9.34117 15.2718 9.30453 15.2002 9.26678 15.1264C8.79551 14.0754 8.92366 12.6538 9.37117 11.6195C9.88235 10.6636 10.7981 9.62479 11.8953 9.11406C12.4448 8.83531 12.6419 8.46387 12.9025 7.98143C14.5831 5.08801 17.5619 3.11366 21.1056 2.04497C25.9143 0.767167 30.9532 1.77423 34.7833 4.48354ZM19.591 38.4937C19.591 38.5255 19.591 38.5572 19.591 38.59C19.8152 38.59 20.0394 38.59 20.2704 38.59C20.2704 38.5582 20.2704 38.5264 20.2704 38.4937C20.0462 38.4937 19.822 38.4937 19.591 38.4937ZM18.4585 38.59C18.4585 38.6217 18.4585 38.6535 18.4585 38.6862C18.7201 38.6862 18.9817 38.6862 19.2512 38.6862C19.2512 38.6544 19.2512 38.6227 19.2512 38.59C18.9897 38.59 18.7281 38.59 18.4585 38.59ZM17.5526 38.6862C17.5526 38.7179 17.5526 38.7497 17.5526 38.7824C17.7768 38.7824 18.001 38.7824 18.2321 38.7824C18.2321 38.7507 18.2321 38.7189 18.2321 38.6862C18.0078 38.6862 17.7836 38.6862 17.5526 38.6862Z" fill="#3C204A"/>
<path d="M51.8656 29.159C51.903 29.1908 51.9404 29.2225 51.9789 29.2553C51.9748 29.9774 51.7442 30.6558 51.5047 31.3423C51.4325 31.5547 51.3605 31.7671 51.2888 31.9795C51.2526 32.0864 51.2164 32.1933 51.1791 32.3035C51.014 32.8011 50.8628 33.3015 50.712 33.8023C50.5138 34.457 50.3016 35.1035 50.0599 35.7477C49.8966 36.2128 49.7567 36.6824 49.6149 37.1525C49.2133 38.4809 48.7577 39.7925 48.2418 41.0921C47.3769 41.2554 46.5138 41.3513 45.6332 41.4304C45.4916 41.4435 45.3499 41.4566 45.2039 41.4701C44.9001 41.4982 44.5962 41.5262 44.2923 41.5539C43.4853 41.6276 42.6786 41.703 41.8719 41.7785C41.7907 41.7861 41.7096 41.7937 41.626 41.8015C40.1092 41.9434 38.5944 42.0981 37.0802 42.2589C35.2392 42.4541 33.3971 42.6367 31.5525 42.8062C31.4424 42.8164 31.3324 42.8265 31.2189 42.837C30.1371 42.9363 29.0555 43.0352 27.9712 43.113C28.0343 42.443 28.2469 41.8299 28.4714 41.1871C28.585 40.8577 28.6919 40.5268 28.7993 40.1959C29.0313 39.4838 29.2653 38.7722 29.5 38.0607C29.7274 37.3712 29.9543 36.6817 30.1794 35.9917C30.5049 34.9952 30.8313 33.999 31.1618 33.0037C31.2481 32.7415 31.3323 32.4788 31.4158 32.216C31.4637 32.0691 31.5116 31.9222 31.5596 31.7754C31.5797 31.7099 31.5999 31.6444 31.6206 31.5769C31.7524 31.1806 31.9042 30.9622 32.2745 30.6988C32.5316 30.6269 32.5316 30.6269 32.8323 30.5924C33.0135 30.5711 33.0135 30.5711 33.1984 30.5494C33.4137 30.5281 33.4137 30.5281 33.6334 30.5063C33.7167 30.498 33.8001 30.4897 33.886 30.4812C34.489 30.422 35.0925 30.3673 35.6963 30.3137C37.521 30.1514 39.3435 29.9775 41.1641 29.7845C43.0838 29.5813 45.0057 29.3994 46.9296 29.2263C47.9739 29.132 49.0158 29.0318 50.0558 28.9075C50.749 28.8311 51.2786 28.7811 51.8656 29.159Z" fill="#64C0F4"/>
<path d="M14.7219 21.364C15.1328 21.5094 15.3696 21.7139 15.6703 21.9895C18.0121 24.0087 21.389 25.1876 24.7015 25.2735C24.8206 25.2773 24.9397 25.281 25.0624 25.2848C25.3526 25.2938 25.6428 25.3018 25.933 25.3096C25.8956 25.7225 25.8583 26.1353 25.8198 26.5607C23.9863 26.4957 22.1513 26.2716 20.3792 25.8607C19.6351 25.7053 18.8746 25.6093 18.1192 25.5021C18.0071 25.1528 17.895 24.8034 17.7795 24.4435C17.4064 25.0775 17.6558 25.961 17.8856 26.6028C18.8279 28.8897 21.063 30.4558 23.5614 31.4791C24.497 31.8436 25.4504 32.1158 26.4497 32.3227C27.1876 32.4968 27.586 32.7336 27.9714 33.2971C28.6654 34.4929 28.8128 36.0599 28.3111 37.3389C27.8781 38.1986 27.1445 38.6274 26.1595 38.9749C25.447 39.1323 24.6555 39.1788 23.9813 38.8911C23.0808 38.4018 22.5863 37.6524 22.0665 36.8827C22.0164 36.8093 21.9662 36.736 21.9146 36.6604C21.8485 36.5611 21.8485 36.5611 21.7811 36.4599C21.5099 36.1382 21.2628 36.0071 20.8087 35.9255C20.6546 35.9106 20.6546 35.9106 20.4973 35.8954C20.4973 36.0542 20.4973 36.213 20.4973 36.3766C20.7215 36.4083 20.9457 36.4401 21.1768 36.4728C20.8548 36.5851 20.7159 36.567 20.3765 36.4792C18.9755 35.967 17.8584 35.2575 16.7603 34.3556C16.6849 34.2941 16.6096 34.2326 16.532 34.1692C13.9876 31.9191 13.1104 28.5486 12.3438 25.5983C12.269 25.5983 12.1943 25.5983 12.1173 25.5983C12.1546 26.2652 12.192 26.9321 12.2305 27.6192C11.0737 27.4008 11.0737 27.4008 10.5602 27.1561C10.4603 27.1098 10.3605 27.0636 10.2576 27.0159C9.92863 26.8283 9.67082 26.6125 9.39941 26.3682C10.6183 25.0817 11.8507 23.8156 13.1789 22.609C13.2544 22.5403 13.3298 22.4715 13.4075 22.4006C13.8237 22.0261 14.2471 21.6844 14.7219 21.364Z" fill="#FEFEFE"/>
<path d="M47.4489 29.9288C46.7059 30.6801 45.9032 31.3776 45.0932 32.0765C44.9132 32.2325 44.7341 32.3893 44.556 32.5469C44.2964 32.7763 44.0339 33.003 43.7707 33.2294C43.6926 33.2994 43.6144 33.3695 43.5339 33.4417C43.0065 33.8882 42.5642 34.0764 41.8334 34.2031C41.4539 34.2813 41.2203 34.4452 40.9303 34.6624C40.4015 35.015 40.0996 35.0858 39.4396 35.0398C38.7105 35.01 38.1832 35.4367 37.6648 35.8168C37.4688 36.0058 37.4148 36.1304 37.3702 36.3765C37.4575 36.3987 37.5448 36.4209 37.6348 36.4438C37.7483 36.4752 37.8619 36.5066 37.9789 36.5389C38.0919 36.5691 38.2049 36.5992 38.3213 36.6303C38.6159 36.7615 38.6159 36.7615 38.7619 37.0039C38.7885 37.0827 38.815 37.1615 38.8424 37.2426C38.8798 37.3062 38.9171 37.3697 38.9556 37.4351C38.9039 37.4716 38.8521 37.5081 38.7987 37.5457C38.1686 38.0009 37.6029 38.4966 37.0374 39.0088C36.6983 39.3145 36.3541 39.616 36.0108 39.9183C35.712 40.1818 35.4153 40.4465 35.1223 40.7146C32.7916 42.8428 32.7916 42.8428 31.21 42.9261C31.0421 42.9283 30.874 42.9278 30.706 42.9241C30.3105 42.9182 29.9218 42.9556 29.5281 42.9866C29.3111 42.9975 29.0941 43.0078 28.877 43.0167C28.9968 42.2848 29.1818 41.5879 29.429 40.8796C29.5641 40.4925 29.692 40.104 29.8183 39.7147C30.0503 39.0026 30.2843 38.2909 30.519 37.5795C30.8186 36.671 31.1168 35.7622 31.4134 34.853C31.4856 34.632 31.5579 34.4111 31.6302 34.1902C31.6548 34.1148 31.6795 34.0394 31.7049 33.9617C31.7535 33.8134 31.8023 33.6651 31.8514 33.5169C31.9537 33.2071 32.0516 32.8982 32.1389 32.5851C32.2878 32.0549 32.4045 31.7012 32.9537 31.3724C33.6314 31.1709 34.3114 31.113 35.0231 31.0517C35.1477 31.0405 35.2723 31.0292 35.4007 31.0176C35.6681 30.9935 35.9356 30.9697 36.2031 30.9461C36.9077 30.8838 37.6121 30.8196 38.3164 30.7555C38.4576 30.7427 38.5987 30.7298 38.7441 30.7166C40.1926 30.5841 41.6384 30.435 43.0837 30.28C44.003 30.1819 44.9227 30.0912 45.8445 30.0115C45.9398 30.0032 46.0351 29.9948 46.1332 29.9862C46.5737 29.9491 47.0057 29.9183 47.4489 29.9288Z" fill="#33AEF0"/>
<path d="M142.574 15.7824C143.145 16.2314 143.546 16.6602 143.631 17.3338C143.646 18.4094 143.646 18.4094 143.14 18.8619C142.748 19.1664 142.35 19.4042 141.894 19.6318C141.976 19.6657 142.058 19.6995 142.143 19.7344C142.939 20.08 143.638 20.4205 143.933 21.1715C144.026 22.042 143.993 22.7644 143.366 23.4812C142.411 24.4015 141.159 24.765 139.744 24.8484C139.385 24.8576 139.026 24.8594 138.667 24.8585C138.486 24.8608 138.486 24.8608 138.302 24.8632C137.443 24.8637 136.51 24.8378 135.843 24.3292C135.019 23.0689 135.063 21.6776 135.07 20.2758C135.071 19.9883 135.07 19.7008 135.069 19.4132C135.066 16.5072 135.066 16.5072 135.666 15.5899C137.271 14.3143 140.94 14.7502 142.574 15.7824ZM138.523 17.1365C138.308 17.4223 138.347 17.6732 138.355 18.0078C138.357 18.1292 138.359 18.2505 138.361 18.3755C138.345 18.6574 138.345 18.6574 138.497 18.7657C139.196 18.8183 139.832 18.8372 140.422 18.477C140.649 18.234 140.65 18.1151 140.634 17.8033C140.521 17.4726 140.397 17.3421 140.082 17.1297C139.77 17.0411 139.558 17.0149 139.233 17.0094C139.145 17.0069 139.058 17.0044 138.968 17.0019C138.72 17.0203 138.72 17.0203 138.523 17.1365ZM138.497 20.7866C138.33 21.0697 138.364 21.3257 138.362 21.6407C138.361 21.7595 138.359 21.8784 138.358 22.0008C138.382 22.3028 138.411 22.4652 138.61 22.7113C139.029 22.8893 139.52 22.7787 139.969 22.7113C140.443 22.54 140.667 22.3419 140.875 21.9414C140.95 21.5585 140.92 21.4188 140.656 21.0994C140.038 20.7138 139.235 20.5776 138.497 20.7866Z" fill="black"/>
<path d="M118.906 15.3494C119.225 16.0277 119.142 16.8019 119.118 17.5203C119.105 18.0301 119.105 18.0301 119.359 18.477C119.946 18.7457 120.651 18.7147 121.284 18.5732C121.582 18.3724 121.722 18.2634 121.785 17.9402C121.781 17.8485 121.777 17.7568 121.773 17.6624C121.771 17.5616 121.768 17.4608 121.766 17.3569C121.761 17.2522 121.756 17.1474 121.751 17.0395C121.743 16.8321 121.736 16.6247 121.731 16.4173C121.725 16.2796 121.725 16.2796 121.718 16.1392C121.746 15.7459 121.862 15.4838 122.19 15.205C122.89 15.0531 123.538 15.1324 124.228 15.3012C124.785 15.5851 124.872 16.1411 125.021 16.6485C125.087 16.9704 125.125 17.2914 125.156 17.6169C125.164 17.7073 125.173 17.7977 125.183 17.8909C125.315 19.371 125.3 20.8534 125.156 22.3324C125.144 22.4602 125.144 22.4602 125.132 22.5906C125.061 23.2077 124.932 23.7888 124.469 24.2871C123.894 24.6609 123.319 24.6824 122.615 24.6736C122.303 24.636 122.303 24.636 121.999 24.4134C121.781 24.0345 121.725 23.7664 121.734 23.3496C121.736 23.1979 121.736 23.1979 121.738 23.0432C121.742 22.8307 121.746 22.6182 121.751 22.4057C121.753 22.2536 121.753 22.2536 121.755 22.0985C121.758 21.9599 121.758 21.9599 121.761 21.8185C121.735 21.5337 121.659 21.3306 121.51 21.0753C121.035 20.7883 120.483 20.8387 119.925 20.8828C119.521 20.9423 119.521 20.9423 119.246 21.1715C118.949 21.9086 119.008 22.6761 119.058 23.4411C119.072 23.876 119.074 24.0868 118.777 24.454C118.404 24.6637 118.217 24.693 117.773 24.6781C117.602 24.6749 117.602 24.6749 117.427 24.6717C116.93 24.6183 116.624 24.5345 116.287 24.2149C115.443 23.0178 115.598 21.3584 115.601 20.0167C115.601 19.9473 115.601 19.8778 115.601 19.8062C115.602 18.958 115.618 18.113 115.714 17.268C115.722 17.195 115.73 17.122 115.738 17.0468C115.818 16.4534 115.966 15.8237 116.499 15.4035C117.15 15.0525 118.246 14.929 118.906 15.3494Z" fill="black"/>
<path d="M7.02131 29.6401C7.38359 29.7845 7.7026 29.9607 8.03343 30.1514C9.25549 30.8148 10.734 31.2568 12.1916 31.2934C13.5752 31.3541 13.5752 31.3541 14.0227 31.7458C14.3947 32.192 14.6576 32.675 14.9234 33.1709C15.1394 33.5185 15.4258 33.7808 15.7411 34.0669C15.685 34.1622 15.685 34.1622 15.6278 34.2594C15.0638 34.1918 14.5527 34.128 14.1548 33.7609C14.0266 33.5942 13.9013 33.4259 13.7788 33.2561C13.2271 32.5343 12.5091 32.2282 11.5648 31.993C10.6288 31.8245 9.75939 31.9092 8.94646 32.3347C8.24471 32.7362 7.52056 33.2184 7.13456 33.8744C7.24535 33.8025 7.35615 33.7305 7.47031 33.6564C8.78572 32.8114 9.71163 32.2625 11.4378 32.4309C12.1494 32.5976 12.7534 33.0362 13.2497 33.4895C13.2871 33.5848 13.3245 33.6801 13.363 33.7782C13.2535 33.7924 13.144 33.8065 13.0312 33.8211C11.8563 33.9872 10.8752 34.2324 10.097 35.0571C9.86944 35.3423 9.73749 35.6497 9.60469 35.9736C9.56152 36.0756 9.56152 36.0756 9.51749 36.1797C9.2021 36.9403 9.04982 37.5915 9.0597 38.3975C9.09955 38.288 9.1394 38.1786 9.18046 38.0659C10.206 35.3115 10.206 35.3115 11.5511 34.5481C12.05 34.3446 12.4734 34.3369 13.0232 34.3556C12.9485 34.4013 12.8737 34.4469 12.7967 34.494C11.2518 35.6154 10.8104 36.9253 10.5389 38.5779C10.4105 39.3401 10.2786 40.1002 10.1143 40.8574C9.99341 41.4158 9.90528 41.9694 9.85241 42.5355C9.56754 42.2469 9.31881 41.9504 9.08093 41.6333C8.75157 41.206 8.36849 40.8596 7.92726 40.5146C7.96463 40.6099 8.002 40.7052 8.04051 40.8033C8.07788 40.8986 8.11525 40.9939 8.15375 41.092C7.16828 40.8303 6.35195 40.1671 5.84641 39.4177C5.18454 38.276 5.04118 37.0863 5.06078 35.8292C5.06041 35.711 5.06005 35.5929 5.05967 35.4711C5.0646 34.7575 5.1395 34.0895 5.32266 33.3933C5.35214 33.2751 5.38163 33.1568 5.41201 33.035C5.76527 31.8357 6.36509 30.7398 7.02131 29.6401Z" fill="#FCFCFC"/>
<path d="M73.3776 15.9832C74.2699 16.6949 74.6361 17.4302 74.6773 18.4649C74.6553 19.2503 74.4319 19.8685 73.9341 20.528C73.1058 21.186 72.221 21.4776 71.1172 21.6527C71.038 21.6654 70.9589 21.678 70.8774 21.691C70.4193 21.7508 69.9665 21.7522 69.5034 21.7508C69.3814 21.7505 69.2594 21.7503 69.1336 21.75C69.0408 21.7496 68.9479 21.7493 68.8523 21.7489C68.85 21.8198 68.8478 21.8907 68.8455 21.9637C68.8347 22.2851 68.8223 22.6064 68.8098 22.9278C68.8063 23.0393 68.8028 23.1509 68.7992 23.2658C68.7948 23.3731 68.7904 23.4804 68.7859 23.5909C68.7824 23.6897 68.7788 23.7885 68.7752 23.8902C68.739 24.1548 68.6821 24.3174 68.5126 24.5397C67.9209 24.7911 67.0301 24.6843 66.4105 24.5458C65.6578 24.0045 65.5709 23.1132 65.455 22.3263C65.4257 21.9475 65.4205 21.5703 65.4209 21.1907C65.4204 21.0868 65.4199 20.9829 65.4194 20.8759C65.4188 20.6578 65.4187 20.4397 65.4192 20.2216C65.4196 19.8922 65.4169 19.5629 65.4141 19.2335C65.4038 16.3576 65.4038 16.3576 66.2477 15.3975C66.6984 15.0904 67.1669 15.0406 67.7269 14.9945C67.855 14.9831 67.855 14.9831 67.9856 14.9715C69.9104 14.8106 71.8315 14.8921 73.3776 15.9832ZM68.739 17.2259C68.6873 17.6071 68.7024 17.9914 68.7037 18.3747C68.7018 18.4816 68.7 18.5885 68.6981 18.6986C68.6981 18.801 68.698 18.9034 68.6979 19.0089C68.6976 19.1029 68.6972 19.1969 68.6969 19.2938C68.7161 19.5396 68.7161 19.5396 68.8975 19.7102C69.2559 19.9357 69.675 19.876 70.098 19.8243C70.607 19.6899 70.9303 19.5115 71.28 19.1687C71.5597 18.6837 71.6271 18.3563 71.4498 17.8334C71.1418 17.3859 70.7831 17.1955 70.2112 17.0335C70.0015 17.0221 69.7914 17.0166 69.5813 17.0154C69.4714 17.0141 69.3615 17.0127 69.2482 17.0113C68.9458 17.0092 68.9458 17.0092 68.739 17.2259Z" fill="black"/>
<path d="M130.48 15.0804C130.639 15.0793 130.797 15.0773 130.956 15.0745C132.036 15.0551 132.952 15.0757 133.798 15.7042C134.024 16.0649 134.167 16.4317 134.081 16.841C133.78 17.1614 133.612 17.3068 133.132 17.3826C132.989 17.3829 132.846 17.3832 132.699 17.3834C132.584 17.3849 132.584 17.3849 132.467 17.3865C132.224 17.3893 131.981 17.389 131.738 17.3883C131.494 17.3892 131.25 17.3907 131.005 17.3933C130.784 17.3954 130.564 17.3954 130.343 17.3954C129.991 17.388 129.991 17.388 129.778 17.6109C129.712 18.0038 129.712 18.0038 129.778 18.3808C130.191 18.6393 130.489 18.7055 130.998 18.7086C131.183 18.7117 131.183 18.7117 131.372 18.7149C131.564 18.7162 131.564 18.7162 131.759 18.7176C132.013 18.7193 132.267 18.7223 132.52 18.7266C132.632 18.7273 132.744 18.728 132.86 18.7287C133.228 18.7719 133.442 18.8698 133.741 19.0544C133.886 19.3013 133.877 19.4884 133.883 19.7641C133.886 19.8562 133.888 19.9482 133.891 20.043C133.848 20.3472 133.765 20.4729 133.515 20.6904C133.165 20.7893 132.908 20.8028 132.542 20.8103C132.418 20.8135 132.294 20.8166 132.166 20.8199C131.905 20.8257 131.644 20.8313 131.383 20.8364C131.197 20.8413 131.197 20.8413 131.006 20.8464C130.893 20.8488 130.779 20.8512 130.663 20.8537C130.331 20.884 130.079 20.958 129.778 21.0753C129.638 21.721 129.638 21.721 129.891 22.3264C130.199 22.4575 130.439 22.4301 130.784 22.4252C130.918 22.424 131.053 22.4229 131.191 22.4217C131.474 22.4183 131.756 22.4145 132.039 22.4104C132.174 22.4093 132.309 22.4083 132.448 22.4072C132.571 22.4056 132.694 22.4039 132.821 22.4023C133.204 22.4243 133.501 22.487 133.854 22.6151C134.098 22.9682 134.095 23.2456 134.017 23.6376C133.922 23.9467 133.859 24.0541 133.592 24.2931C132.657 24.7553 131.727 24.752 130.669 24.7563C130.488 24.7593 130.488 24.7593 130.304 24.7623C129.176 24.7669 127.982 24.6507 127.06 24.0586C126.229 23.2453 126.232 22.1962 126.233 21.1715C126.232 21.0641 126.232 20.9567 126.231 20.846C126.231 20.6202 126.231 20.3944 126.231 20.1686C126.232 19.8252 126.229 19.482 126.226 19.1386C126.226 18.9181 126.226 18.6975 126.226 18.477C126.225 18.3755 126.224 18.274 126.223 18.1695C126.229 17.3411 126.369 16.5058 126.986 15.8339C127.961 15.0626 129.232 15.0864 130.48 15.0804Z" fill="black"/>
<path d="M63.643 15.3975C64.1618 15.8629 64.3547 16.2812 64.3366 16.9192C64.3345 17.0131 64.3325 17.107 64.3304 17.2037C64.3278 17.2746 64.3251 17.3454 64.3224 17.4184C63.7708 17.6528 62.9602 17.4397 62.3756 17.3406C61.1364 17.1231 61.1364 17.1231 59.9059 17.3222C59.7579 17.4279 59.7579 17.4279 59.7573 17.6891C59.8014 18.071 59.9052 18.1387 60.2457 18.3807C60.5426 18.508 60.5426 18.508 60.8734 18.6052C60.995 18.6443 61.1167 18.6834 61.2421 18.7238C61.4955 18.8031 61.7491 18.882 62.0029 18.9606C63.042 19.296 64.0238 19.7195 64.5489 20.5941C64.8942 21.4045 64.8479 22.2444 64.4215 23.0301C63.8198 23.9354 62.9103 24.4845 61.7341 24.7861C61.2406 24.8722 60.7334 24.8503 60.2315 24.8525C60.1188 24.8545 60.0061 24.8565 59.89 24.8585C58.9987 24.8625 58.0905 24.7928 57.365 24.3112C56.7637 23.7877 56.6047 23.3561 56.6148 22.6391C56.6158 22.5443 56.6168 22.4496 56.6179 22.3519C56.6192 22.28 56.6205 22.208 56.6219 22.1339C57.3673 22.1003 57.9719 22.2537 58.6775 22.444C59.4351 22.6373 60.1309 22.7371 60.8756 22.4707C60.9667 22.4231 61.0578 22.3754 61.1516 22.3263C61.2052 21.8622 61.2052 21.8622 60.984 21.4546C60.5943 21.1995 60.1971 21.112 59.729 20.9971C58.2868 20.6138 57.2106 20.0539 56.4024 18.9461C56.1033 18.2473 56.1475 17.3822 56.5015 16.7087C57.0348 15.9325 57.8733 15.3636 58.8867 15.1088C60.3324 14.8368 62.3462 14.6536 63.643 15.3975Z" fill="black"/>
<path d="M17.6661 9.52722C17.7035 9.52722 17.7408 9.52722 17.7793 9.52722C17.7838 9.58621 17.7883 9.6452 17.7929 9.70597C17.8819 10.8227 17.9972 11.8883 18.3677 12.965C18.4961 13.4094 18.4792 13.7649 18.3809 14.2126C18.308 14.5218 18.308 14.5218 18.48 14.7118C18.6781 14.8309 18.6781 14.8309 18.9101 14.8559C19.2505 14.9461 19.3298 15.1577 19.4886 15.4136C19.5295 15.4817 19.5703 15.5499 19.6125 15.6201C20.0672 16.3398 20.5648 16.9778 21.1767 17.6109C21.2625 17.6997 21.3483 17.7885 21.4368 17.8801C24.5421 20.933 29.0833 21.913 33.6335 22.2302C32.1747 23.2184 29.7879 23.5405 27.9713 23.5774C27.8738 23.5834 27.7762 23.5893 27.6758 23.5955C25.9966 23.66 24.1641 23.3125 22.6488 22.7113C22.519 22.6618 22.3893 22.6123 22.2556 22.5613C19.5187 21.4655 17.7029 19.6759 16.6101 17.3144C16.3036 16.5737 16.1282 15.883 16.5195 15.1509C16.5608 15.0785 16.6021 15.006 16.6447 14.9314C17.1891 13.9529 17.209 12.8083 16.9783 11.7645C16.8036 10.9241 16.9516 10.4674 17.4847 9.74676C17.5745 9.63809 17.5745 9.63809 17.6661 9.52722Z" fill="#220F2D"/>
<path d="M92.0236 15.0798C92.1898 15.0792 92.1898 15.0792 92.3594 15.0786C92.5921 15.078 92.8249 15.078 93.0577 15.0784C93.4101 15.0787 93.7623 15.0764 94.1147 15.074C96.8666 15.0665 96.8666 15.0665 97.7504 15.626C98.1138 16.0732 98.1038 16.4988 98.0689 17.0335C97.8424 17.3222 97.8424 17.3222 97.5027 17.4184C97.2432 17.4281 96.9837 17.4359 96.7241 17.4425C96.0746 17.4615 96.0746 17.4615 95.5421 17.7372C95.277 18.096 95.2242 18.3874 95.2199 18.8064C95.2182 18.9318 95.2182 18.9318 95.2164 19.0598C95.2156 19.1498 95.2148 19.2398 95.2139 19.3326C95.2107 19.526 95.2075 19.7195 95.2042 19.913C95.1995 20.2157 95.1954 20.5184 95.1923 20.8212C95.1587 23.9306 95.1587 23.9306 94.6245 24.5259C94.2518 24.7545 93.8839 24.7506 93.4401 24.7563C93.3236 24.7587 93.2071 24.7612 93.0871 24.7638C92.6975 24.7277 92.4926 24.6413 92.1802 24.4435C91.2858 23.2049 91.5725 21.2513 91.5623 19.8581C91.5599 19.5769 91.5554 19.2957 91.5507 19.0145C91.5507 18.9289 91.5507 18.8433 91.5507 18.7551C91.5421 18.3 91.5222 17.9739 91.161 17.6109C90.656 17.4678 90.1448 17.4874 89.615 17.4737C89.179 17.4101 89.0391 17.3355 88.7829 17.0335C88.7233 16.5188 88.7652 16.0709 89.0094 15.5899C89.842 15.077 91.0327 15.079 92.0236 15.0798Z" fill="black"/>
<path d="M108.839 15.0892C108.948 15.0887 109.057 15.0881 109.169 15.0876C109.398 15.0866 109.628 15.086 109.857 15.0856C110.204 15.0847 110.551 15.0817 110.899 15.0787C113.548 15.0665 113.548 15.0665 114.511 15.596C114.854 15.9078 114.853 16.1266 114.865 16.5463C114.871 16.6994 114.871 16.6994 114.877 16.8556C114.829 17.1297 114.829 17.1297 114.65 17.3071C114.287 17.4546 113.985 17.4613 113.584 17.4725C112.919 17.4748 112.919 17.4748 112.338 17.7071C112.074 18.1293 112.076 18.5463 112.072 19.013C112.071 19.0934 112.069 19.1739 112.067 19.2567C112.062 19.5141 112.058 19.7714 112.055 20.0287C112.04 21.0339 112.017 22.0342 111.903 23.0353C111.895 23.1091 111.887 23.1829 111.879 23.2589C111.819 23.7351 111.687 24.1113 111.432 24.5397C111.084 24.7711 110.738 24.7581 110.307 24.7563C110.191 24.7568 110.076 24.7572 109.957 24.7578C109.609 24.7313 109.364 24.6748 109.054 24.5397C108.448 23.7767 108.454 22.7831 108.449 21.8948C108.447 21.7929 108.445 21.6909 108.444 21.5859C108.437 21.1539 108.432 20.7219 108.427 20.2899C108.424 19.9727 108.418 19.6557 108.413 19.3386C108.413 19.2414 108.412 19.1443 108.411 19.0442C108.403 18.5661 108.389 18.1491 108.148 17.7071C107.611 17.4252 106.969 17.4779 106.356 17.4609C105.996 17.4184 105.996 17.4184 105.78 17.306C105.603 17.0538 105.611 16.8563 105.614 16.5643C105.613 16.4653 105.612 16.3663 105.611 16.2643C105.663 15.9348 105.759 15.7564 105.996 15.4937C106.2 15.3869 106.2 15.3869 106.421 15.3253C106.529 15.2933 106.529 15.2933 106.638 15.2606C107.37 15.1063 108.09 15.0922 108.839 15.0892Z" fill="black"/>
<path d="M51.6393 30.1213C51.7514 30.169 51.7514 30.169 51.8658 30.2176C51.8453 30.2789 51.8249 30.3402 51.8038 30.4033C51.4273 31.5336 51.0564 32.6645 50.7121 33.8023C50.5139 34.4569 50.3018 35.1035 50.0601 35.7477C49.8968 36.2127 49.7568 36.6824 49.6151 37.1525C49.2135 38.4809 48.7579 39.7924 48.242 41.092C47.394 41.2508 46.5479 41.3498 45.6852 41.4296C45.5527 41.4422 45.4201 41.4547 45.2836 41.4676C45.0054 41.4939 44.7271 41.5199 44.4488 41.5457C44.0233 41.5853 43.5979 41.6256 43.1726 41.6661C42.9013 41.6916 42.63 41.717 42.3586 41.7424C42.2319 41.7544 42.1052 41.7664 41.9747 41.7788C41.7966 41.7952 41.7966 41.7952 41.6149 41.812C41.5112 41.8217 41.4075 41.8313 41.3006 41.8413C40.9709 41.8635 40.6456 41.8654 40.3149 41.8619C40.5868 41.4423 40.9219 41.1009 41.2917 40.7432C41.4143 40.6231 41.5368 40.5029 41.6593 40.3827C41.7195 40.3235 41.7798 40.2644 41.8419 40.2034C42.2486 39.8008 42.6397 39.3871 43.0328 38.9749C43.5687 38.4145 44.1091 37.8581 44.6607 37.3088C45.0891 36.8819 45.5021 36.4472 45.9064 36.0037C46.4052 35.4567 46.9305 34.9338 47.4678 34.414C47.8738 34.0191 48.2614 33.6158 48.6384 33.2008C49.139 32.6498 49.6665 32.1227 50.2064 31.5992C50.7019 31.1179 51.1769 30.6259 51.6393 30.1213Z" fill="#33ADF0"/>
<path d="M161.351 15.2471C162.241 16.1335 162.064 17.5715 162.051 18.6751C162.049 18.7858 162.049 18.7858 162.048 18.8989C162.044 19.2022 162.039 19.5055 162.032 19.8088C162.027 20.0344 162.025 20.2599 162.022 20.4855C162.02 20.5527 162.018 20.62 162.016 20.6893C162.013 21.2634 162.134 21.7939 162.592 22.2279C162.936 22.3621 163.213 22.3618 163.591 22.362C163.736 22.3637 163.88 22.3654 164.029 22.3671C164.258 22.3681 164.487 22.3684 164.716 22.3683C164.938 22.3686 165.16 22.3713 165.382 22.3741C165.514 22.3742 165.646 22.3744 165.783 22.3746C166.2 22.4325 166.334 22.5199 166.581 22.8075C166.654 23.3516 166.591 23.682 166.242 24.1548C165.782 24.613 165.097 24.7068 164.416 24.7595C164.033 24.7709 163.652 24.7722 163.269 24.7683C163.134 24.7674 162.999 24.7666 162.86 24.7657C161.507 24.7466 160.089 24.7004 159.079 23.842C158.245 22.7286 158.404 21.3373 158.407 20.0648C158.407 19.998 158.407 19.9312 158.407 19.8624C158.408 19.0135 158.429 18.1682 158.52 17.3221C158.528 17.2442 158.536 17.1662 158.544 17.0859C158.618 16.4977 158.769 15.9365 159.199 15.4576C159.824 15.0633 160.647 14.9412 161.351 15.2471Z" fill="black"/>
<path d="M152.405 15.2532C153.159 15.9857 153.122 16.9814 153.105 17.9022C153.103 18.0895 153.101 18.2768 153.099 18.464C153.095 18.7565 153.091 19.049 153.086 19.3414C153.081 19.6255 153.079 19.9097 153.076 20.1938C153.074 20.2803 153.072 20.3669 153.07 20.456C153.067 21.0508 153.124 21.6356 153.613 22.1011C153.965 22.3648 154.253 22.3407 154.711 22.3467C154.852 22.3494 154.992 22.3521 155.136 22.355C155.433 22.3599 155.73 22.3642 156.026 22.3677C156.167 22.3707 156.308 22.3737 156.452 22.3768C156.581 22.3787 156.71 22.3806 156.843 22.3825C157.213 22.4262 157.373 22.49 157.635 22.7113C157.743 23.1359 157.695 23.5511 157.501 23.9503C157.015 24.4339 156.557 24.6316 155.823 24.7322C155.328 24.7617 154.834 24.7643 154.337 24.7623C154.201 24.7618 154.065 24.7614 153.925 24.7609C152.649 24.7466 151.28 24.7219 150.274 23.9624C149.621 23.3051 149.56 22.5202 149.524 21.6948C149.52 21.6102 149.516 21.5256 149.511 21.4385C149.279 16.4391 149.279 16.4391 150.274 15.4937C150.861 15.0418 151.7 14.9337 152.405 15.2532Z" fill="black"/>
<path d="M77.7774 15.2532C78.5316 15.9857 78.4947 16.9814 78.4772 17.9022C78.4752 18.0895 78.4733 18.2768 78.4715 18.464C78.468 18.7565 78.4639 19.049 78.4587 19.3414C78.4539 19.6255 78.4512 19.9097 78.4489 20.1938C78.4468 20.2803 78.4447 20.3669 78.4425 20.456C78.4397 21.0508 78.497 21.6356 78.9854 22.1011C79.3373 22.3648 79.6259 22.3407 80.0839 22.3467C80.2242 22.3494 80.3644 22.3521 80.509 22.355C80.8056 22.3599 81.1023 22.3642 81.399 22.3677C81.5396 22.3707 81.6802 22.3737 81.825 22.3768C81.954 22.3787 82.083 22.3806 82.216 22.3825C82.5853 22.4262 82.7452 22.49 83.0079 22.7113C83.1154 23.1359 83.0674 23.5511 82.8734 23.9503C82.388 24.4339 81.9292 24.6316 81.196 24.7322C80.7002 24.7617 80.2065 24.7643 79.7096 24.7623C79.5735 24.7618 79.4374 24.7614 79.2972 24.7609C78.0219 24.7466 76.6526 24.7219 75.647 23.9624C74.9939 23.3051 74.9328 22.5202 74.8968 21.6948C74.8926 21.6102 74.8883 21.5256 74.884 21.4385C74.6517 16.4391 74.6517 16.4391 75.647 15.4937C76.2338 15.0418 77.0725 14.9337 77.7774 15.2532Z" fill="black"/>
<path d="M14.3821 20.7866C14.2569 21.1056 14.1696 21.1687 13.8725 21.3761C13.1187 21.9204 12.4284 22.5149 11.785 23.153C11.5963 23.34 11.406 23.5254 11.2143 23.7101C11.0882 23.8323 10.9622 23.9545 10.8361 24.0766C10.7401 24.1691 10.7401 24.1691 10.6421 24.2634C10.3329 24.5646 10.0407 24.866 9.77579 25.1965C9.09696 26.0392 9.09696 26.0392 8.62743 26.1649C8.30229 26.1818 8.30229 26.1818 7.98866 26.1761C7.53697 26.1755 7.23111 26.2954 6.90798 26.5607C6.68702 26.8378 6.50733 27.1234 6.34176 27.4268C5.31152 26.994 4.2875 26.5564 3.28418 26.0795C3.35069 25.5346 3.58557 25.0865 3.8504 24.5939C3.89579 24.5091 3.94118 24.4244 3.98794 24.337C4.66942 23.0892 5.5248 21.566 6.90798 20.7866C7.25062 20.8244 7.47547 20.931 7.74979 21.1043C7.82261 21.1502 7.89544 21.1961 7.97047 21.2434C8.04727 21.2932 8.12408 21.3429 8.20321 21.3941C8.28264 21.445 8.36207 21.4959 8.4439 21.5484C9.12192 21.9899 9.74809 22.4694 10.3646 22.9711C10.6189 23.1927 10.6189 23.1927 10.8715 23.2887C10.711 22.8526 10.4282 22.5786 10.0505 22.2662C9.99177 22.2168 9.93306 22.1674 9.87256 22.1165C9.28651 21.6339 8.64982 21.2124 7.99972 20.7945C7.90104 20.7284 7.80236 20.6623 7.70069 20.5942C7.70069 20.5624 7.70069 20.5306 7.70069 20.4979C9.82102 20.2664 12.3297 20.2053 14.3821 20.7866Z" fill="#FDFCFD"/>
<path d="M147.217 15.1088C147.769 15.3845 147.892 15.7816 148.057 16.2835C148.233 17.0039 148.254 17.7081 148.255 18.4413C148.256 18.6011 148.256 18.6011 148.256 18.7642C148.257 18.9891 148.257 19.214 148.257 19.439C148.257 19.7787 148.259 20.1185 148.262 20.4582C148.271 23.4506 148.271 23.4506 147.67 24.3473C147.192 24.7156 146.74 24.7611 146.117 24.7525C145.733 24.7224 145.491 24.6332 145.179 24.4435C144.217 23.2475 144.478 21.2671 144.478 19.8735C144.478 19.6384 144.476 19.4032 144.474 19.1681C144.461 16.264 144.461 16.264 145.179 15.3975C145.724 14.9336 146.502 15.0353 147.217 15.1088Z" fill="black"/>
<path d="M86.7448 15.1088C87.2964 15.3845 87.4196 15.7816 87.5853 16.2835C87.7607 17.0039 87.7821 17.7081 87.783 18.4413C87.7836 18.6011 87.7836 18.6011 87.7841 18.7642C87.7847 18.9891 87.785 19.214 87.785 19.439C87.7852 19.7787 87.7873 20.1185 87.7894 20.4582C87.7987 23.4506 87.7987 23.4506 87.1978 24.3473C86.7195 24.7156 86.2678 24.7611 85.6446 24.7525C85.2612 24.7224 85.0189 24.6332 84.7064 24.4435C83.7452 23.2475 84.0058 21.2671 84.006 19.8735C84.0057 19.6384 84.0036 19.4032 84.0015 19.1681C83.9891 16.264 83.9891 16.264 84.7064 15.3975C85.2523 14.9336 86.0294 15.0353 86.7448 15.1088Z" fill="black"/>
<path d="M28.4098 6.12889C28.5302 6.13012 28.6505 6.13134 28.7745 6.13261C30.9981 6.16774 33.4694 6.76859 35.1456 8.09568C37.082 9.97186 37.6299 12.2772 37.464 14.7219C37.2808 16.0951 36.3446 17.3975 35.0912 18.257C34.9118 18.368 34.7262 18.4717 34.5391 18.5732C34.5584 18.5216 34.5777 18.47 34.5975 18.4168C34.7902 17.8873 34.9605 17.3543 35.1195 16.8169C35.1388 16.7522 35.1581 16.6874 35.178 16.6207C35.4196 15.7946 35.4692 15.0249 35.4734 14.1765C35.4757 14.0594 35.4781 13.9424 35.4805 13.8218C35.4885 12.2362 34.903 11.0301 33.6115 9.88203C31.5771 8.22775 29.0253 7.30438 26.3281 6.71946C26.235 6.69328 26.1418 6.66711 26.0459 6.64014C26.0085 6.57662 25.9711 6.51311 25.9326 6.44767C26.7716 6.18776 27.5203 6.11556 28.4098 6.12889Z" fill="#C0B6C4"/>
<path d="M28.4242 2.40584C28.5394 2.42984 28.5394 2.42984 28.657 2.45433C29.9391 2.72684 31.0966 3.15203 32.2745 3.65689C31.8107 3.78825 31.4517 3.67262 30.9934 3.57268C30.824 3.53667 30.6546 3.50083 30.4851 3.46517C30.4102 3.44893 30.3353 3.4327 30.2581 3.41597C28.1117 3.00316 25.745 3.17096 23.6679 3.75312C23.5908 3.77474 23.5136 3.79635 23.434 3.81862C20.1082 4.78704 17.2971 6.66308 15.5144 9.23848C14.8743 9.06137 14.8743 9.06137 14.573 8.94376C14.1401 8.81542 13.7046 8.78932 13.2495 8.7573C13.8244 7.67952 14.4793 6.75879 15.4011 5.87027C15.4965 5.77835 15.5918 5.68643 15.69 5.59172C18.8977 2.70033 23.892 1.43713 28.4242 2.40584Z" fill="#FBFBFB"/>
<path d="M16.5337 40.5146C17.3401 40.5691 18.0605 40.8175 18.8153 41.053C18.9623 41.0983 19.1092 41.1435 19.2562 41.1887C19.6437 41.3081 20.0309 41.4282 20.418 41.5484C20.8013 41.6674 21.185 41.7857 21.5686 41.904C21.72 41.9508 21.8714 41.9975 22.0228 42.0443C22.3235 42.1371 22.6242 42.2298 22.925 42.3224C23.635 42.5412 24.3436 42.7624 25.0496 42.9904C25.1771 43.031 25.3046 43.0716 25.436 43.1134C25.6717 43.1885 25.9069 43.2648 26.1414 43.3425C27.4134 43.7444 28.592 43.5729 29.9177 43.446C30.0859 43.4303 30.2541 43.4146 30.4223 43.399C30.8713 43.3571 31.3202 43.3145 31.7691 43.2718C32.1437 43.2362 32.5184 43.201 32.893 43.1658C35.3154 42.938 37.736 42.6989 40.1552 42.4483C41.7856 42.2796 43.4171 42.1216 45.0498 41.9702C45.1627 41.9596 45.2756 41.9491 45.3919 41.9382C45.708 41.9087 46.0241 41.8796 46.3402 41.8507C46.4332 41.842 46.5262 41.8333 46.6221 41.8243C47.051 41.7855 47.47 41.7553 47.9022 41.7657C47.5864 42.2379 47.2644 42.5251 46.6565 42.728C45.9373 42.8825 45.2012 42.9648 44.4655 43.0385C44.3638 43.049 44.2622 43.0595 44.1574 43.0702C43.818 43.105 43.4784 43.1391 43.1389 43.1731C43.0204 43.1851 42.902 43.1971 42.78 43.2095C41.0894 43.3809 39.3978 43.5427 37.7054 43.7002C37.6132 43.7087 37.521 43.7173 37.426 43.7261C36.5023 43.812 35.5786 43.8974 34.6547 43.9819C34.3056 44.0139 33.9564 44.046 33.6074 44.0781C33.3684 44.1 33.1294 44.1217 32.8904 44.1433C32.0429 44.2213 31.1998 44.3121 30.357 44.4212C29.8275 44.4807 29.3045 44.492 28.7711 44.4903C28.6249 44.4927 28.6249 44.4927 28.4758 44.495C26.6238 44.4962 25.0013 43.9394 23.307 43.3716C23.0729 43.2941 22.8388 43.2168 22.6046 43.1395C22.1312 42.9832 21.6581 42.8261 21.1853 42.6685C20.5383 42.4528 19.8906 42.2388 19.2427 42.0255C18.3014 41.7154 17.3607 41.4042 16.4204 41.0921C16.4578 40.9015 16.4952 40.711 16.5337 40.5146Z" fill="#F12224"/>
<path d="M28.7641 38.3013C28.37 39.892 27.8101 41.4528 27.292 43.0168C26.589 42.9592 25.9753 42.7793 25.3146 42.5728C25.2 42.5376 25.0854 42.5023 24.9674 42.466C24.5954 42.3515 24.2238 42.236 23.8522 42.1206C23.5967 42.0417 23.3413 41.9629 23.0858 41.8841C22.5757 41.7268 22.0658 41.5691 21.556 41.411C20.9177 41.2132 20.279 41.0163 19.64 40.8199C19.303 40.7162 18.9659 40.6124 18.6288 40.5086C18.5504 40.4845 18.4719 40.4603 18.3911 40.4355C18.1742 40.3686 17.9574 40.3016 17.7406 40.2346C17.6212 40.1978 17.5019 40.1609 17.3789 40.1229C17.1 40.0335 17.1 40.0335 16.8735 39.9373C16.8735 39.7785 16.8735 39.6197 16.8735 39.4561C17.6694 39.371 18.4654 39.2871 19.2616 39.2041C19.5324 39.1757 19.8031 39.147 20.0739 39.1181C20.4631 39.0766 20.8524 39.036 21.2418 38.9956C21.3628 38.9825 21.4837 38.9693 21.6083 38.9558C21.7216 38.9442 21.8349 38.9327 21.9517 38.9208C22.051 38.9103 22.1503 38.8998 22.2527 38.889C22.7733 38.87 23.136 38.9679 23.562 39.2155C24.3466 39.6697 25.2402 39.6119 26.1524 39.4982C26.9366 39.3519 27.6602 38.9623 28.213 38.4719C28.4244 38.3013 28.4244 38.3013 28.7641 38.3013Z" fill="#93B5D2"/>
<path d="M51.6391 28.9906C51.7512 29.0739 51.7512 29.0739 51.8656 29.159C51.8656 29.286 51.8656 29.413 51.8656 29.5439C49.2969 29.7947 46.7276 30.0407 44.157 30.2774C41.533 30.519 38.9102 30.7681 36.2893 31.0329C35.967 31.0654 35.6447 31.0976 35.3223 31.1292C34.9315 31.1675 34.5407 31.2066 34.1501 31.2461C34.0428 31.2564 33.9355 31.2667 33.8249 31.2773C33.6813 31.2922 33.6813 31.2922 33.5347 31.3073C33.414 31.3194 33.414 31.3194 33.2908 31.3317C33.0351 31.3782 32.8386 31.4512 32.6142 31.5648C32.5011 31.7426 32.5011 31.7426 32.4443 31.9618C32.4169 32.0491 32.3894 32.1365 32.3612 32.2264C32.3182 32.3753 32.3182 32.3753 32.2745 32.5272C32.2085 32.7558 32.1424 32.9843 32.0763 33.2129C32.0485 33.3093 32.0485 33.3093 32.0202 33.4076C31.8474 33.999 31.6489 34.5832 31.4464 35.1676C30.8629 36.8515 30.3054 38.54 29.7907 40.2401C29.6107 40.8308 29.4135 41.4134 29.1956 41.995C29.0723 42.3327 28.9724 42.6726 28.8771 43.0167C28.5782 43.0485 28.2792 43.0802 27.9712 43.113C28.0343 42.443 28.2469 41.8299 28.4714 41.1871C28.585 40.8577 28.6919 40.5267 28.7993 40.1959C29.0313 39.4837 29.2653 38.7721 29.5 38.0607C29.7274 37.3712 29.9543 36.6816 30.1794 35.9916C30.5049 34.9952 30.8313 33.9989 31.1618 33.0037C31.2481 32.7414 31.3323 32.4788 31.4158 32.2159C31.4637 32.0691 31.5116 31.9222 31.5596 31.7754C31.5797 31.7098 31.5999 31.6443 31.6206 31.5768C31.7524 31.1805 31.9042 30.9621 32.2745 30.6987C32.5316 30.6269 32.5316 30.6269 32.8323 30.5923C33.0135 30.5711 33.0135 30.5711 33.1984 30.5493C33.4137 30.528 33.4137 30.528 33.6334 30.5063C33.7167 30.498 33.8001 30.4897 33.886 30.4812C34.489 30.422 35.0925 30.3673 35.6963 30.3137C37.521 30.1513 39.3435 29.9775 41.1641 29.7845C43.0838 29.5812 45.0057 29.3994 46.9296 29.2263C47.9739 29.1319 49.0158 29.0318 50.0558 28.9075C50.6254 28.8447 51.0963 28.7984 51.6391 28.9906Z" fill="#A8D9F4"/>
<path d="M12.9098 10.2008C13.6869 10.4929 14.1037 11.1203 14.4245 11.7646C14.5875 12.5957 14.5663 13.4365 14.2688 14.2426C14.2397 14.3218 14.2107 14.4009 14.1807 14.4825C13.8823 15.1987 13.4354 15.7257 12.7046 16.1673C12.1888 16.3048 11.7447 16.3587 11.2112 16.2636C10.515 15.9475 10.189 15.4779 9.93054 14.8614C9.55604 13.743 9.64605 12.5184 10.2628 11.4759C10.9004 10.5444 11.6426 10.0878 12.9098 10.2008Z" fill="#FCFCFC"/>
<path d="M43.1531 33.9467C43.2317 33.9459 43.3103 33.9452 43.3913 33.9444C43.8502 33.9459 44.2054 33.9909 44.6182 34.1632C44.6143 35.1844 44.4033 36.0434 43.5618 36.8089C43.2516 37.0478 42.9556 37.2755 42.5798 37.4351C42.5704 37.5483 42.5611 37.6614 42.5515 37.778C42.4787 38.393 42.0203 38.7916 41.504 39.1974C41.1897 39.3777 40.8935 39.5276 40.5414 39.6485C40.3919 39.6168 40.2424 39.585 40.0884 39.5523C40.0884 39.1395 40.0884 38.7266 40.0884 38.3013C39.9389 38.2695 39.7895 38.2377 39.6354 38.205C39.5607 38.1415 39.486 38.078 39.409 38.0126C39.058 38.0435 39.058 38.0435 38.7295 38.1088C38.6921 37.9818 38.6548 37.8547 38.6162 37.7238C38.7844 37.6762 38.7844 37.6762 38.956 37.6276C38.8999 37.5562 38.8439 37.4847 38.7861 37.4111C38.6162 37.1464 38.6162 37.1464 38.6162 36.7615C38.2052 36.6662 37.7941 36.571 37.3706 36.4728C37.3332 36.3458 37.2958 36.2187 37.2573 36.0879C37.7227 35.5428 38.3919 35.0603 39.1825 34.9331C39.3549 34.9453 39.5271 34.9595 39.6991 34.9752C40.3816 34.9863 40.7536 34.7109 41.2616 34.3504C41.8554 33.9786 42.434 33.9398 43.1531 33.9467Z" fill="#3B234E"/>
<path d="M26.6121 25.3096C26.8737 25.3096 27.1353 25.3096 27.4048 25.3096C27.4298 25.4096 27.4298 25.4096 27.4553 25.5115C28.0171 27.5942 29.218 29.3145 31.3684 30.5063C31.2981 30.8216 31.2133 31.1279 31.1074 31.4359C31.0788 31.5197 31.0503 31.6034 31.0208 31.6897C30.9757 31.8214 30.9757 31.8214 30.9296 31.9558C30.7399 32.5133 30.552 33.0697 30.3916 33.6339C30.2477 34.1399 30.0703 34.6349 29.8869 35.1315C29.7702 35.4489 29.6616 35.7676 29.5565 36.0879C29.4444 36.0879 29.3322 36.0879 29.2167 36.0879C29.2125 36.004 29.2083 35.9202 29.2039 35.8338C29.1241 34.6054 28.9333 33.2487 27.8578 32.3347C27.4589 32.1312 27.0531 31.9785 26.6121 31.8536C26.6121 31.7583 26.6121 31.663 26.6121 31.5649C26.7581 31.5002 26.9045 31.4362 27.051 31.3724C27.1324 31.3367 27.2139 31.3009 27.2978 31.2641C27.5181 31.1799 27.5181 31.1799 27.7446 31.1799C27.7971 31.0668 27.7971 31.0668 27.8507 30.9514C27.9711 30.6988 27.9711 30.6988 28.0843 30.5063C28.1277 30.0633 28.1352 29.8264 27.9074 29.4236C27.645 29.1359 27.645 29.1359 27.2235 29.0019C26.9698 28.8829 26.8604 28.8293 26.7673 28.5931C26.7432 28.3744 26.7399 28.1635 26.7466 27.944C26.7469 27.6742 26.7395 27.4079 26.7254 27.1381C26.6506 27.0746 26.5759 27.0111 26.4989 26.9456C26.4296 26.3995 26.5019 25.8483 26.6121 25.3096Z" fill="#FBFAFB"/>
<path d="M14.2686 30.8912C14.5769 31.1337 14.8043 31.4067 15.0471 31.6972C16.3671 33.218 18.0498 34.377 20.1572 35.0293C20.3572 35.0532 20.5578 35.0735 20.7588 35.0895C21.158 35.1417 21.2678 35.2002 21.5369 35.4657C21.7675 35.7646 21.9827 36.0685 22.1956 36.3766C22.6643 36.9625 23.217 37.297 24.0075 37.5314C24.3236 37.5801 24.5964 37.5688 24.9135 37.5314C25.0019 37.5233 25.0904 37.5153 25.1815 37.507C26.0766 37.3944 26.895 37.0585 27.511 36.4849C28.05 35.7908 28.1757 35.0696 28.3108 34.2594C28.3482 34.2594 28.3855 34.2594 28.424 34.2594C28.7251 35.3014 28.7023 36.743 28.1055 37.7058C27.5265 38.4228 26.7958 38.8342 25.8053 39.0531C24.9299 39.1016 24.301 39.1082 23.574 38.6528C22.9173 38.1548 22.4999 37.5249 22.0661 36.8827C22.016 36.8094 21.9659 36.736 21.9143 36.6604C21.8702 36.5942 21.8262 36.5281 21.7808 36.4599C21.5095 36.1382 21.2625 36.0071 20.8084 35.9255C20.7056 35.9156 20.6028 35.9056 20.497 35.8954C20.497 36.0542 20.497 36.213 20.497 36.3766C20.8333 36.4242 20.8333 36.4242 21.1764 36.4728C20.8544 36.5851 20.7155 36.567 20.3762 36.4792C18.9752 35.9671 17.858 35.2575 16.7599 34.3557C16.6846 34.2941 16.6093 34.2326 16.5317 34.1692C15.7242 33.4551 14.2686 31.9143 14.2686 30.8912Z" fill="#B7ACBC"/>
<path d="M14.6437 34.7105C14.7904 34.7069 14.9371 34.7033 15.0882 34.6996C15.5971 34.7485 15.8129 34.8357 16.1937 35.1255C16.689 35.688 16.7074 36.2493 16.6821 36.9299C16.6804 37.0644 16.6804 37.0644 16.6787 37.2017C16.6711 37.5933 16.6461 37.9182 16.5334 38.3012C14.8144 38.3012 13.0954 38.3012 11.3242 38.3012C11.3242 37.2411 11.5891 36.2178 12.4567 35.4142C13.1695 34.9236 13.7206 34.7252 14.6437 34.7105Z" fill="#ABAAAF"/>
<path d="M8.60654 26.6569C8.91817 26.7753 9.18537 26.9342 9.46295 27.102C10.4118 27.6423 11.3734 27.986 12.4568 28.2929C12.5908 28.5304 12.5908 28.5304 12.7169 28.8428C12.7623 28.9545 12.8077 29.0662 12.8545 29.1813C12.9008 29.299 12.9471 29.4167 12.9947 29.5379C13.0668 29.7138 13.0668 29.7138 13.1403 29.8933C13.3986 30.538 13.3986 30.538 13.476 30.7949C13.42 30.8902 13.42 30.8902 13.3628 30.9874C11.3396 30.7828 8.90692 30.5182 7.46702 29.1469C7.00818 28.5683 6.89172 28.0188 7.02113 27.3305C7.35765 26.7197 7.81895 26.5358 8.60654 26.6569Z" fill="#FCFCFC"/>
<path d="M119.019 28.1004C119.43 28.1004 119.841 28.1004 120.265 28.1004C120.353 28.2382 120.442 28.376 120.533 28.518C120.649 28.6976 120.765 28.8772 120.88 29.0567C120.939 29.1477 120.997 29.2387 121.058 29.3325C121.113 29.419 121.169 29.5055 121.227 29.5947C121.278 29.6748 121.33 29.7549 121.383 29.8375C121.494 30.0192 121.494 30.0192 121.624 30.1213C121.661 30.0635 121.698 30.0057 121.736 29.9462C121.904 29.6857 122.072 29.4253 122.239 29.165C122.327 29.0285 122.327 29.0285 122.417 28.8893C122.472 28.8027 122.528 28.7162 122.586 28.6271C122.637 28.5469 122.689 28.4668 122.742 28.3842C122.869 28.1966 122.869 28.1966 122.983 28.1004C123.356 28.1004 123.73 28.1004 124.115 28.1004C124.115 29.5612 124.115 31.0221 124.115 32.5272C123.704 32.5272 123.293 32.5272 122.869 32.5272C122.832 31.7968 122.795 31.0663 122.756 30.3138C122.532 30.6949 122.308 31.076 122.077 31.4686C121.508 31.5703 121.508 31.5703 121.171 31.4686C120.834 31.1033 120.624 30.7321 120.378 30.3138C120.341 31.0442 120.303 31.7746 120.265 32.5272C119.854 32.5272 119.443 32.5272 119.019 32.5272C119.019 31.0663 119.019 29.6055 119.019 28.1004Z" fill="black"/>
<path d="M91.9541 28.1004C92.3278 28.1004 92.7015 28.1004 93.0865 28.1004C93.5395 28.774 93.9925 29.4477 94.4455 30.1213C94.8939 29.4544 95.3424 28.7875 95.8044 28.1004C96.1781 28.1004 96.5518 28.1004 96.9368 28.1004C97.1118 28.2491 97.0645 28.3878 97.0647 28.5947C97.0651 28.6792 97.0654 28.7636 97.0658 28.8507C97.0656 28.9425 97.0653 29.0343 97.0651 29.1289C97.0652 29.2225 97.0653 29.3161 97.0654 29.4126C97.0655 29.611 97.0653 29.8093 97.0648 30.0077C97.0642 30.3125 97.0648 30.6172 97.0656 30.922C97.0655 31.1142 97.0653 31.3065 97.0651 31.4987C97.0653 31.5905 97.0656 31.6823 97.0658 31.7769C97.0653 31.9036 97.0653 31.9036 97.0647 32.0329C97.0646 32.1076 97.0645 32.1823 97.0645 32.2593C97.0501 32.4309 97.0501 32.4309 96.9368 32.5272C96.5631 32.5272 96.1894 32.5272 95.8044 32.5272C95.767 31.765 95.7296 31.0028 95.6911 30.2176C95.4296 30.6304 95.168 31.0432 94.8984 31.4686C94.5995 31.4686 94.3005 31.4686 93.9925 31.4686C93.7683 31.1193 93.544 30.7699 93.313 30.41C93.3062 30.5548 93.2993 30.6996 93.2922 30.8487C93.2827 31.0373 93.2731 31.2259 93.2635 31.4145C93.259 31.5101 93.2546 31.6056 93.25 31.7041C93.2452 31.795 93.2405 31.8859 93.2356 31.9795C93.2294 32.1057 93.2294 32.1057 93.223 32.2345C93.1998 32.4309 93.1998 32.4309 93.0865 32.5272C92.7128 32.5272 92.3391 32.5272 91.9541 32.5272C91.9541 31.0663 91.9541 29.6055 91.9541 28.1004Z" fill="black"/>
<path d="M2.15169 26.3682C2.98926 26.3927 3.62874 26.7479 4.34579 27.09C4.4709 27.1484 4.596 27.2068 4.72489 27.267C5.6398 27.6964 5.6398 27.6964 5.77549 27.8117C5.82231 28.3509 5.70593 28.7508 5.47823 29.2432C5.44782 29.3105 5.41741 29.3777 5.38608 29.447C5.13901 29.974 4.84198 30.4507 4.41657 30.8912C4.36489 30.9448 4.31322 30.9984 4.25997 31.0536C4.021 31.2185 3.85031 31.2274 3.54601 31.2461C3.40872 31.2556 3.40872 31.2556 3.26865 31.2653C3.19902 31.2689 3.12939 31.2725 3.05764 31.2762C3.10012 31.2354 3.1426 31.1945 3.18637 31.1525C3.2733 31.0678 3.2733 31.0678 3.36199 30.9815C3.41848 30.9267 3.47497 30.872 3.53318 30.8157C4.06679 30.258 4.41598 29.7556 4.67845 29.0688C4.7083 28.9938 4.73815 28.9188 4.76891 28.8416C4.84139 28.659 4.91226 28.476 4.98279 28.2929C4.90805 28.2929 4.83331 28.2929 4.7563 28.2929C4.7436 28.3776 4.7309 28.4624 4.71782 28.5497C4.51779 29.4076 3.82394 30.2241 3.05764 30.795C2.67365 30.9621 2.35564 31.0429 1.92521 30.9875C1.70049 30.8258 1.70049 30.8258 1.50054 30.6146C1.43339 30.5453 1.36624 30.4761 1.29706 30.4048C0.903181 29.9567 0.955433 29.5077 1.01926 28.9666C1.23965 28.0541 1.60308 27.1757 2.15169 26.3682Z" fill="#FCFBFC"/>
<path d="M14.7216 21.364C15.1326 21.5094 15.3693 21.7139 15.67 21.9895C18.0119 24.0087 21.3888 25.1876 24.7012 25.2735C24.8203 25.2773 24.9394 25.281 25.0622 25.2848C25.3523 25.2938 25.6425 25.3018 25.9327 25.3096C25.8954 25.7225 25.858 26.1353 25.8195 26.5607C23.986 26.4957 22.151 26.2716 20.3789 25.8607C19.6349 25.7053 18.8743 25.6093 18.1189 25.5021C18.0068 25.1528 17.8947 24.8034 17.7792 24.4435C17.7044 24.507 17.6297 24.5705 17.5527 24.636C17.5527 24.5725 17.5527 24.509 17.5527 24.4435C17.4688 24.4176 17.3848 24.3917 17.2983 24.3649C16.5095 24.0768 15.8752 23.5164 15.2454 23.0301C15.1874 22.9855 15.1294 22.9409 15.0697 22.895C14.7676 22.6582 14.5019 22.4217 14.2686 22.1339C13.9298 22.2651 13.6695 22.4177 13.391 22.6271C13.3215 22.6789 13.252 22.7308 13.1804 22.7842C13.1285 22.8237 13.0765 22.8631 13.0229 22.9038C13.3662 22.2503 14.0781 21.8042 14.7216 21.364Z" fill="#B7ADBC"/>
<path d="M34.8763 5.44928C35.394 5.85592 35.8113 6.32954 36.2308 6.80859C36.2858 6.87117 36.3407 6.93374 36.3974 6.99822C36.4741 7.0882 36.4741 7.0882 36.5524 7.17999C36.5983 7.23355 36.6441 7.28711 36.6913 7.3423C36.8156 7.523 36.8688 7.68689 36.9174 7.89123C36.845 7.8297 36.7726 7.76817 36.698 7.70477C36.6453 7.66061 36.5926 7.61645 36.5383 7.57095C36.4047 7.45608 36.2744 7.33845 36.1464 7.21909C34.111 5.37505 31.1173 4.50332 28.1883 4.40875C27.2657 4.39086 26.3827 4.45111 25.4798 4.61926C25.3428 4.64283 25.2059 4.6664 25.0648 4.69068C21.8638 5.27823 19.0147 6.91842 17.1997 9.23475C16.9474 9.58087 16.7304 9.9261 16.5335 10.2971C16.3467 10.1383 16.1598 9.97951 15.9673 9.81591C16.6608 7.74217 19.283 6.1038 21.3956 5.10095C22.4216 4.63004 23.4407 4.27416 24.5738 4.04185C24.7902 3.99608 24.7902 3.99608 25.0109 3.94938C28.1314 3.35722 32.3257 3.66728 34.8763 5.44928Z" fill="#F7F6F8"/>
<path d="M73.2686 28.1004C73.9973 28.0855 73.9973 28.0855 74.7407 28.0703C74.8921 28.0659 75.0435 28.0616 75.1994 28.057C75.9307 28.0498 76.4596 28.0783 77.0675 28.4398C77.4292 28.7514 77.494 29.0565 77.501 29.4838C77.4916 29.9833 77.3958 30.2319 77.0056 30.6025C76.8935 30.6501 76.8935 30.6501 76.7791 30.6987C76.8602 31.1862 77.1146 31.5055 77.4272 31.911C77.5718 32.1422 77.5718 32.1422 77.5718 32.5272C77.1448 32.5729 76.7512 32.593 76.3261 32.5272C76.0418 32.3094 75.9097 32.0532 75.7599 31.7573C75.6259 31.5066 75.4945 31.3133 75.3069 31.0837C75.0453 31.0519 74.7838 31.0201 74.5142 30.9874C74.5142 31.4955 74.5142 32.0037 74.5142 32.5272C74.1032 32.5272 73.6921 32.5272 73.2686 32.5272C73.2686 31.0663 73.2686 29.6055 73.2686 28.1004ZM74.5142 28.9665C74.5142 29.3158 74.5142 29.6652 74.5142 30.0251C74.736 30.0303 74.9578 30.034 75.1795 30.0371C75.303 30.0393 75.4265 30.0416 75.5538 30.0439C75.8887 30.054 75.8887 30.054 76.0996 29.8326C76.1468 29.4958 76.1468 29.4958 76.0996 29.159C75.7122 28.9395 75.5695 28.9454 75.1158 28.9545C74.9173 28.9584 74.7188 28.9624 74.5142 28.9665Z" fill="black"/>
<path d="M14.3821 20.7866C14.2569 21.1056 14.1696 21.1687 13.8725 21.3761C13.1187 21.9204 12.4284 22.5149 11.785 23.153C11.5963 23.34 11.406 23.5254 11.2143 23.7101C11.0882 23.8323 10.9622 23.9545 10.8361 24.0766C10.7402 24.169 10.7402 24.169 10.6423 24.2632C10.3319 24.5656 10.0386 24.8685 9.77181 25.1999C9.08734 26.0456 9.08734 26.0456 8.62477 26.157C8.33825 26.1576 8.09138 26.1382 7.81393 26.0795C8.58063 25.0447 9.42904 24.0667 10.645 23.385C10.7198 23.385 10.7945 23.385 10.8715 23.385C10.7252 22.8954 10.4717 22.6026 10.0505 22.2602C9.99177 22.2112 9.93305 22.1623 9.87255 22.1118C9.28546 21.6325 8.64838 21.2114 7.99972 20.7945C7.90104 20.7284 7.80236 20.6623 7.70068 20.5942C7.70068 20.5624 7.70068 20.5306 7.70068 20.4979C9.82102 20.2664 12.3297 20.2053 14.3821 20.7866Z" fill="#FCFBFC"/>
<path d="M137.358 28.091C137.561 28.0927 137.561 28.0927 137.768 28.0944C137.971 28.0957 137.971 28.0957 138.179 28.097C138.284 28.0981 138.389 28.0993 138.497 28.1004C138.892 28.828 139.232 29.5715 139.565 30.3211C139.658 30.5315 139.753 30.7414 139.848 30.9513C139.908 31.0861 139.968 31.221 140.028 31.3558C140.07 31.4491 140.07 31.4491 140.113 31.5442C140.272 31.9064 140.309 32.1276 140.309 32.5272C139.898 32.5272 139.487 32.5272 139.063 32.5272C138.837 32.046 138.837 32.046 138.837 31.7573C138.164 31.7891 137.491 31.8208 136.798 31.8535C136.686 32.0758 136.574 32.2981 136.459 32.5272C136.047 32.5272 135.636 32.5272 135.213 32.5272C135.28 31.9788 135.452 31.506 135.68 30.9912C135.715 30.9112 135.75 30.8312 135.785 30.7488C135.858 30.581 135.932 30.4132 136.006 30.2456C136.119 29.988 136.232 29.7301 136.344 29.4721C136.415 29.3088 136.486 29.1455 136.558 28.9823C136.591 28.9049 136.625 28.8275 136.66 28.7478C136.945 28.1027 136.945 28.1027 137.358 28.091ZM137.704 29.2552C137.609 29.4756 137.515 29.6962 137.421 29.9168C137.394 29.9795 137.367 30.0421 137.339 30.1067C137.189 30.4422 137.189 30.4422 137.138 30.795C137.549 30.795 137.96 30.795 138.384 30.795C138.296 30.4205 138.192 30.1084 138.037 29.7544C137.996 29.6605 137.955 29.5666 137.913 29.4699C137.881 29.399 137.85 29.3282 137.817 29.2552C137.78 29.2552 137.743 29.2552 137.704 29.2552Z" fill="black"/>
<path d="M109.167 28.1004C109.578 28.1004 109.989 28.1004 110.413 28.1004C110.415 28.1853 110.417 28.2703 110.42 28.3578C110.428 28.6744 110.438 28.9909 110.449 29.3074C110.453 29.4442 110.457 29.5809 110.461 29.7177C110.466 29.9148 110.472 30.1118 110.479 30.3089C110.483 30.4273 110.486 30.5458 110.49 30.6678C110.525 30.9761 110.585 31.1946 110.752 31.4686C111.105 31.6182 111.506 31.6502 111.885 31.5648C112.235 31.1764 112.271 30.866 112.283 30.3841C112.285 30.3186 112.287 30.253 112.289 30.1855C112.295 29.9777 112.299 29.7698 112.303 29.562C112.306 29.4204 112.31 29.2789 112.314 29.1374C112.324 28.7917 112.331 28.4461 112.338 28.1004C112.749 28.1004 113.16 28.1004 113.584 28.1004C113.592 28.5695 113.598 29.0386 113.602 29.5077C113.604 29.6672 113.606 29.8266 113.609 29.986C113.613 30.2158 113.615 30.4456 113.617 30.6754C113.619 30.7461 113.62 30.8168 113.622 30.8897C113.622 31.3485 113.528 31.6564 113.244 32.046C112.559 32.5974 111.921 32.6676 111.006 32.6535C110.502 32.6122 110.128 32.5088 109.733 32.2385C109.233 31.7047 109.15 31.2912 109.156 30.6284C109.156 30.5562 109.156 30.484 109.156 30.4096C109.157 30.1792 109.159 29.9488 109.16 29.7183C109.161 29.562 109.161 29.4057 109.162 29.2494C109.163 28.8664 109.165 28.4834 109.167 28.1004Z" fill="black"/>
<path d="M21.4029 26.5607C22.2935 26.6219 23.1726 26.7347 24.0536 26.8592C24.2857 26.8918 24.518 26.9233 24.7504 26.9548C24.8975 26.9755 25.0446 26.9961 25.1961 27.0174C25.3294 27.0359 25.4628 27.0545 25.6002 27.0736C25.9326 27.1381 25.9326 27.1381 26.2723 27.3305C26.3055 27.5599 26.3055 27.5599 26.2936 27.8237C26.289 27.9551 26.289 27.9551 26.2843 28.0891C26.2803 28.1564 26.2764 28.2236 26.2723 28.2929C26.1399 28.2873 26.0075 28.2817 25.8711 28.276C25.6958 28.2715 25.5205 28.2671 25.3452 28.2628C25.2581 28.2588 25.171 28.2547 25.0813 28.2506C24.589 28.2416 24.4074 28.2519 24.0088 28.5233C23.5557 29.022 23.6037 29.508 23.6677 30.1213C23.8009 30.4798 23.8009 30.4798 24.1207 30.6987C24.4556 30.8078 24.7852 30.8533 25.1399 30.8912C25.2282 30.9018 25.3165 30.9123 25.4075 30.9232C25.6199 30.9472 25.8329 30.9677 26.0459 30.9874C26.0459 31.2097 26.0459 31.432 26.0459 31.6611C25.3086 31.5401 24.6676 31.3613 23.9862 31.0957C23.8993 31.0631 23.8124 31.0305 23.7228 30.9968C23.2178 30.8034 22.7454 30.6056 22.3088 30.3138C22.2913 30.162 22.2913 30.162 22.2734 30.0071C22.1798 29.5656 22.0689 29.5329 21.6718 29.2612C21.2939 28.966 21.1845 28.8404 21.1304 28.4C21.1489 28.0064 21.2148 27.6229 21.2896 27.2343C21.3115 27.1063 21.3331 26.9782 21.3542 26.8501C21.3703 26.7546 21.3863 26.6591 21.4029 26.5607Z" fill="#FAF9FA"/>
<path d="M82.7812 28.1004C84.0518 28.1004 85.3224 28.1004 86.6315 28.1004C86.6315 28.3545 86.6315 28.6085 86.6315 28.8703C86.5183 28.9665 86.5183 28.9665 86.2767 28.9774C86.173 28.9769 86.0692 28.9764 85.9622 28.9759C85.8502 28.9756 85.7382 28.9753 85.6227 28.975C85.5049 28.9742 85.387 28.9734 85.2655 28.9725C85.1472 28.9721 85.0289 28.9717 84.907 28.9712C84.6136 28.9701 84.3203 28.9685 84.0269 28.9665C84.0269 29.2523 84.0269 29.5381 84.0269 29.8326C84.1891 29.8315 84.3513 29.8304 84.5184 29.8292C84.7297 29.8283 84.941 29.8275 85.1523 29.8266C85.2594 29.8258 85.3664 29.825 85.4768 29.8242C85.6295 29.8237 85.6295 29.8237 85.7853 29.8232C85.9267 29.8225 85.9267 29.8225 86.071 29.8217C86.2918 29.8326 86.2918 29.8326 86.4051 29.9289C86.4051 30.1829 86.4051 30.437 86.4051 30.6987C85.6203 30.6987 84.8355 30.6987 84.0269 30.6987C84.0269 31.0163 84.0269 31.3339 84.0269 31.6611C84.8865 31.6611 85.746 31.6611 86.6315 31.6611C86.6315 31.9469 86.6315 32.2327 86.6315 32.5272C85.3609 32.5272 84.0903 32.5272 82.7812 32.5272C82.7812 31.0663 82.7812 29.6055 82.7812 28.1004Z" fill="black"/>
<path d="M28.7637 38.3013C28.571 39.0791 28.3291 39.844 28.0842 40.6109C25.3416 40.668 22.688 40.4218 19.9802 40.0816C19.9015 40.0718 19.8228 40.0621 19.7417 40.052C18.805 39.9347 17.8933 39.7874 16.9863 39.5523C16.9863 39.5206 16.9863 39.4888 16.9863 39.4561C17.923 39.3491 18.8601 39.2452 19.798 39.1461C20.2822 39.0948 20.7656 39.0396 21.2489 38.9824C21.4653 38.9596 21.6818 38.9371 21.8983 38.9148C22.043 38.896 22.043 38.896 22.1907 38.8768C22.8794 38.8121 23.2355 38.9585 23.7786 39.3191C24.434 39.7114 25.3985 39.5921 26.152 39.4982C26.9361 39.3519 27.6597 38.9623 28.2125 38.4719C28.4239 38.3013 28.4239 38.3013 28.7637 38.3013Z" fill="#AADAF5"/>
<path d="M154.804 28.1004C155.295 28.0944 155.785 28.0885 156.291 28.0824C156.444 28.0797 156.597 28.0771 156.755 28.0744C156.939 28.0733 156.939 28.0733 157.127 28.0722C157.251 28.0707 157.376 28.0692 157.504 28.0676C158.06 28.1185 158.426 28.2828 158.803 28.6297C159.133 29.0447 159.166 29.4404 159.107 29.9289C158.904 30.429 158.626 30.6341 158.088 30.8912C157.685 31.0054 157.359 30.9968 156.935 30.9934C156.791 30.9926 156.646 30.9917 156.498 30.9908C156.332 30.9891 156.332 30.9891 156.163 30.9874C156.164 31.0905 156.166 31.1936 156.167 31.2998C156.168 31.4343 156.169 31.5687 156.17 31.7032C156.171 31.7712 156.172 31.8393 156.173 31.9094C156.174 32.0832 156.169 32.2571 156.163 32.4309C156.107 32.4786 156.107 32.4786 156.05 32.5272C155.639 32.5272 155.228 32.5272 154.804 32.5272C154.804 31.0663 154.804 29.6055 154.804 28.1004ZM156.05 28.9665C156.05 29.3476 156.05 29.7287 156.05 30.1213C156.246 30.1273 156.442 30.1332 156.644 30.1394C156.755 30.1427 156.865 30.1461 156.979 30.1495C157.343 30.1171 157.492 30.0517 157.749 29.8326C157.8 29.5348 157.823 29.3479 157.619 29.0939C157.314 28.9092 157.078 28.9383 156.708 28.9485C156.382 28.9574 156.382 28.9574 156.05 28.9665Z" fill="black"/>
<path d="M145.405 28.1004C145.895 28.0944 146.386 28.0885 146.891 28.0824C147.045 28.0797 147.198 28.0771 147.356 28.0744C147.54 28.0733 147.54 28.0733 147.727 28.0722C147.852 28.0707 147.976 28.0692 148.105 28.0676C148.637 28.1164 149.007 28.2872 149.404 28.5876C149.709 29.0388 149.781 29.5186 149.662 30.0311C149.473 30.475 149.165 30.6722 148.689 30.8912C148.279 31.0073 147.905 30.9978 147.479 30.9934C147.069 30.9905 147.069 30.9905 146.65 30.9874C146.65 31.4955 146.65 32.0037 146.65 32.5272C146.239 32.5272 145.828 32.5272 145.405 32.5272C145.405 31.0663 145.405 29.6055 145.405 28.1004ZM146.65 28.9665C146.65 29.3476 146.65 29.7287 146.65 30.1213C147.466 30.1814 147.466 30.1814 148.208 29.9649C148.399 29.6555 148.354 29.4887 148.236 29.159C148.025 28.9376 148.025 28.9376 147.69 28.9477C147.17 28.9571 147.17 28.9571 146.65 28.9665Z" fill="black"/>
<path d="M63.8696 28.1004C64.3601 28.0944 64.8506 28.0885 65.356 28.0824C65.5094 28.0797 65.6628 28.0771 65.8209 28.0744C66.0046 28.0733 66.0046 28.0733 66.192 28.0722C66.3165 28.0707 66.4411 28.0692 66.5694 28.0676C67.1016 28.1164 67.4722 28.2872 67.8685 28.5876C68.1736 29.0388 68.2457 29.5186 68.1269 30.0311C67.9377 30.475 67.6296 30.6722 67.1537 30.8912C66.7437 31.0073 66.3695 30.9978 65.9434 30.9934C65.5335 30.9905 65.5335 30.9905 65.1153 30.9874C65.1153 31.4955 65.1153 32.0037 65.1153 32.5272C64.7042 32.5272 64.2932 32.5272 63.8696 32.5272C63.8696 31.0663 63.8696 29.6055 63.8696 28.1004ZM65.1153 28.9665C65.1153 29.3476 65.1153 29.7287 65.1153 30.1213C65.9307 30.1814 65.9307 30.1814 66.6724 29.9649C66.8641 29.6555 66.8188 29.4887 66.7007 29.159C66.4898 28.9376 66.4898 28.9376 66.1549 28.9477C65.6351 28.9571 65.6351 28.9571 65.1153 28.9665Z" fill="black"/>
<path d="M15.6277 16.4561C15.7842 16.711 15.9105 16.962 16.0179 17.2346C17.0837 19.864 19.0396 21.7587 21.9681 23.0045C23.0272 23.4318 24.1071 23.6719 25.2535 23.8661C25.3392 23.8831 25.4249 23.9001 25.5132 23.9176C26.1043 24.0039 26.7079 23.9802 27.3063 23.9802C27.5443 23.9804 27.7824 23.9821 28.0204 23.9839C28.8336 23.9867 29.5601 23.9348 30.3494 23.7699C30.6026 23.8124 30.6026 23.8124 30.8024 23.8661C30.4841 23.9589 30.1656 24.051 29.8469 24.1428C29.7582 24.1687 29.6695 24.1946 29.5782 24.2213C26.8913 24.9918 24.1305 24.702 21.5894 23.662C18.8637 22.4906 16.6681 20.7014 15.5145 18.2845C15.4485 18.1642 15.3824 18.0439 15.3163 17.9236C15.1599 17.5779 15.0615 17.309 15.0615 16.9372C15.3376 16.6545 15.3376 16.6545 15.6277 16.4561Z" fill="#B3A9B9"/>
<path d="M16.4204 40.8033C17.2336 40.9372 17.9735 41.1519 18.7437 41.4086C18.8673 41.4492 18.9909 41.4898 19.1183 41.5317C19.5121 41.6612 19.9056 41.7916 20.299 41.9221C20.5579 42.0075 20.8168 42.0928 21.0758 42.1781C21.5839 42.3454 22.0919 42.5129 22.5999 42.6804C22.7215 42.7205 22.8431 42.7605 22.9684 42.8018C23.205 42.8798 23.4415 42.958 23.678 43.0362C24.0018 43.1432 24.3259 43.2496 24.65 43.3558C24.7913 43.4027 24.7913 43.4027 24.9354 43.4505C27.8625 44.4058 31.0079 43.9061 34.035 43.6063C34.5513 43.5554 35.0678 43.5058 35.5843 43.4559C38.0742 43.2151 40.5634 42.9691 43.0495 42.7007C43.5587 42.6463 44.0685 42.5995 44.5792 42.5559C44.7119 42.5441 44.8446 42.5323 44.9813 42.5201C45.2155 42.4996 45.45 42.4805 45.6846 42.4634C46.3359 42.4052 46.7947 42.2623 47.3481 41.9621C47.5624 41.8619 47.5624 41.8619 47.9022 41.8619C47.3731 42.4801 46.7936 42.7924 45.8962 42.9134C45.6951 42.9344 45.4938 42.9539 45.2923 42.972C45.1804 42.9832 45.0686 42.9944 44.9534 43.006C44.5776 43.0432 44.2015 43.0782 43.8254 43.113C43.5497 43.1393 43.2741 43.1658 42.9984 43.1922C42.1736 43.2708 41.3485 43.3466 40.5233 43.4221C39.8794 43.4811 39.2355 43.5407 38.5917 43.6003C38.3547 43.6222 38.1178 43.644 37.8809 43.6659C36.6889 43.776 35.4972 43.8878 34.3058 44.0031C34.2283 44.0106 34.1508 44.018 34.071 44.0257C33.2273 44.1069 32.3866 44.1975 31.5462 44.3005C30.5984 44.4151 29.6653 44.4887 28.7074 44.4963C28.5654 44.4983 28.5654 44.4983 28.4206 44.5004C26.5933 44.4888 24.9794 43.9321 23.307 43.3716C23.0729 43.2941 22.8388 43.2168 22.6046 43.1395C22.1312 42.9832 21.6581 42.8261 21.1853 42.6685C20.5383 42.4528 19.8906 42.2388 19.2427 42.0254C18.3014 41.7154 17.3607 41.4042 16.4204 41.092C16.4204 40.9968 16.4204 40.9015 16.4204 40.8033Z" fill="#B21F2F"/>
<path d="M14.6298 9.47306C15.7105 10.0124 16.1611 10.8411 16.4801 11.8289C16.8154 13.0813 16.4984 14.4107 15.764 15.5095C15.1798 16.2462 14.4691 16.7448 13.4762 17.0335C13.2059 17.059 13.2059 17.059 12.9453 17.0575C12.8585 17.058 12.7716 17.0585 12.6821 17.059C12.457 17.0335 12.457 17.0335 12.2305 16.841C12.3017 16.8163 12.3729 16.7916 12.4463 16.7662C13.497 16.3668 14.1292 15.819 14.5944 14.9223C15.1491 13.6686 15.2557 12.4407 14.7218 11.1632C14.5879 10.9467 14.445 10.7486 14.2786 10.5493C14.1556 10.3933 14.1556 10.3933 14.0424 10.1046C13.7159 9.93091 13.363 9.84631 12.9949 9.75575C12.8938 9.73069 12.7928 9.70563 12.6888 9.67982C12.6123 9.66121 12.5358 9.6426 12.457 9.62343C12.774 9.08456 14.0813 9.26958 14.6298 9.47306Z" fill="#FAF9FA"/>
<path d="M38.9559 37.4351C38.9559 37.4986 38.9559 37.5621 38.9559 37.6276C38.8812 37.6593 38.8065 37.6911 38.7295 37.7238C38.7295 37.8191 38.7295 37.9144 38.7295 38.0125C38.8801 37.9738 38.8801 37.9738 39.0338 37.9343C39.1576 37.9284 39.2814 37.9224 39.4089 37.9163C39.7155 38.1557 39.7155 38.1557 39.9751 38.3975C39.9325 38.4362 39.8898 38.4748 39.8458 38.5147C39.098 39.1928 38.3515 39.8713 37.6231 40.5646C37.4313 40.7459 37.2382 40.926 37.0436 41.1052C36.9875 41.1569 36.9313 41.2087 36.8734 41.2621C36.7643 41.3624 36.6551 41.4627 36.5457 41.5627C36.3366 41.7552 36.1388 41.9398 35.9712 42.1603C35.737 42.3903 35.6063 42.406 35.2556 42.4438C35.1525 42.4556 35.0494 42.4674 34.9431 42.4795C34.8356 42.4901 34.7281 42.5006 34.6173 42.5115C34.5111 42.5235 34.4049 42.5355 34.2955 42.5479C33.77 42.6052 33.2584 42.6469 32.7275 42.6318C33.3211 42.0211 33.9715 41.4627 34.6297 40.9029C34.7475 40.8025 34.8653 40.7021 34.9831 40.6016C35.2285 40.3925 35.4741 40.1836 35.7198 39.9749C36.0352 39.7069 36.3498 39.4382 36.6642 39.1694C36.9065 38.9624 37.1493 38.7559 37.3922 38.5495C37.5085 38.4506 37.6246 38.3514 37.7406 38.2522C37.9018 38.1142 38.0639 37.9769 38.2259 37.8396C38.3179 37.7613 38.4099 37.683 38.5047 37.6023C38.7295 37.4351 38.7295 37.4351 38.9559 37.4351Z" fill="#65C0F3"/>
<path d="M21.4245 9.52719C21.9226 9.82819 22.2384 10.1893 22.3601 10.7053C22.3921 11.2469 22.2265 11.6852 21.8563 12.1255C21.3893 12.5334 21.0165 12.7184 20.3487 12.733C19.9265 12.7292 19.7388 12.7192 19.3649 12.5405C18.8388 12.0236 18.7298 11.6465 18.7522 10.9715C18.8469 10.3817 19.2093 9.99481 19.74 9.62342C20.3008 9.31676 20.7949 9.35934 21.4245 9.52719Z" fill="#C0B6C4"/>
<path d="M42.8059 34.4519C43.01 34.6336 43.1824 34.8056 43.358 35.0052C43.4065 35.0558 43.4549 35.1064 43.5049 35.1586C43.6402 35.3105 43.6402 35.3105 43.8251 35.6067C43.7592 35.8619 43.7592 35.8619 43.5986 36.0879C43.5564 36.15 43.5143 36.2122 43.4708 36.2762C42.8166 36.9958 41.8409 37.2863 40.8808 37.6276C40.7212 37.6872 40.7212 37.6872 40.5583 37.7479C40.251 37.8389 40.0569 37.7988 39.7483 37.7238C39.9194 37.3525 40.1767 37.1837 40.5481 36.948C40.9911 36.6819 40.9911 36.6819 41.2205 36.2803C40.655 36.4898 40.2238 36.7757 39.7541 37.1149C39.6391 37.1781 39.6391 37.1781 39.5219 37.2427C39.4097 37.2109 39.2976 37.1792 39.1821 37.1464C39.3121 36.337 40.3788 35.363 41.1059 34.8691C42.2422 34.2279 42.2422 34.2279 42.8059 34.4519Z" fill="#F4F7FA"/>
<path d="M9.96569 12.0293C10.2171 12.243 10.2733 12.3849 10.3904 12.6668C10.6943 13.3264 11.1137 13.9516 11.8846 14.2791C12.5177 14.4418 13.1498 14.4101 13.7594 14.2066C13.9678 14.0914 14.1753 13.975 14.3822 13.8577C14.1124 14.8211 13.6462 15.5857 12.6835 16.1674C12.1826 16.3093 11.7335 16.3412 11.2114 16.2636C10.5146 15.9509 10.1884 15.4761 9.93075 14.8614C9.60989 13.9033 9.7202 12.9923 9.96569 12.0293Z" fill="#B8ADBD"/>
<path d="M14.4951 17.3222C14.5445 17.435 14.5938 17.5477 14.6446 17.6639C15.2411 19.0094 15.9285 20.1346 16.9865 21.2678C17.0474 21.3334 17.1082 21.3991 17.1709 21.4667C18.4135 22.7528 20.1137 23.5535 21.856 24.2511C21.4939 24.3532 21.3031 24.3448 20.9518 24.2221C20.8655 24.1921 20.7791 24.162 20.6902 24.1311C20.5984 24.0972 20.5067 24.0634 20.4121 24.0285C20.3166 23.9936 20.2211 23.9586 20.1227 23.9226C17.2211 22.8275 14.7249 20.941 13.3627 18.477C13.2368 18.1913 13.1253 17.9033 13.0229 17.6109C13.2044 17.5623 13.3861 17.5143 13.5679 17.4666C13.6691 17.4398 13.7703 17.413 13.8745 17.3854C14.1554 17.3222 14.1554 17.3222 14.4951 17.3222Z" fill="#B3A8B9"/>
<path d="M6.34146 28.4854C6.66006 28.8915 6.66006 28.8915 6.6812 29.159C6.5574 29.4045 6.42761 29.6293 6.27777 29.8627C5.33806 31.4 4.76035 32.9219 4.52956 34.6443C3.42927 34.2949 2.33972 33.633 1.81171 32.7197C1.77854 32.4201 1.77854 32.4201 1.79048 32.1122C1.79355 32.0093 1.79661 31.9065 1.79977 31.8005C1.80371 31.7228 1.80765 31.645 1.81171 31.5648C1.95711 31.6114 1.95711 31.6114 2.10544 31.6588C2.84033 31.8465 3.64785 31.8792 4.35262 31.607C5.45182 30.7184 5.89323 29.7047 6.34146 28.4854Z" fill="#B6ACBB"/>
<path d="M11.0981 38.7824C12.8171 38.7824 14.5362 38.7824 16.3073 38.7824C16.3073 39.456 16.3073 39.456 16.0808 40.2259C14.3618 40.2259 12.6427 40.2259 10.8716 40.2259C10.9463 39.7496 11.0211 39.2732 11.0981 38.7824Z" fill="#AEAEB1"/>
<path d="M5.09575 36.4728C5.28804 36.7179 5.42062 36.9403 5.56288 37.2066C6.01369 37.9694 6.55451 38.4998 7.44556 38.9027C8.12185 39.2101 8.56533 39.5998 9.04833 40.0956C9.40754 40.456 9.50121 40.5127 10.0785 40.6109C10.0037 41.246 9.92899 41.8811 9.85199 42.5355C9.56436 42.23 9.32041 41.9588 9.08051 41.6333C8.75116 41.206 8.36807 40.8596 7.92684 40.5146C7.96421 40.6099 8.00158 40.7052 8.04009 40.8033C8.07746 40.8986 8.11483 40.9939 8.15333 41.092C7.16786 40.8303 6.35153 40.1671 5.84599 39.4177C5.3165 38.5044 5.02374 37.4927 5.09575 36.4728Z" fill="#B7ACBC"/>
<path d="M49.1478 29.7364C48.9961 30.0258 48.8309 30.2174 48.5604 30.4341C48.2878 30.6591 48.029 30.8866 47.7818 31.1318C47.3856 31.5225 46.9724 31.8985 46.5574 32.2746C46.0013 32.7786 45.451 33.2861 44.9096 33.8016C44.8146 33.8917 44.7187 33.9814 44.6181 34.067C44.3122 34.0582 44.01 34.0441 43.705 34.0249C43.6191 34.0198 43.5332 34.0148 43.4447 34.0096C43.2318 33.9971 43.019 33.984 42.8062 33.9707C43.551 33.2175 44.356 32.5184 45.1681 31.8178C45.3488 31.6611 45.5287 31.5037 45.7076 31.3455C45.9681 31.1153 46.2314 30.8879 46.4954 30.6608C46.5741 30.5902 46.6529 30.5197 46.734 30.447C47.4598 29.8325 48.1452 29.7237 49.1478 29.7364Z" fill="#64C1F4"/>
<path d="M10.645 40.7071C12.3267 40.7071 14.0083 40.7071 15.741 40.7071C15.6277 41.477 15.6277 41.477 15.288 42.1506C13.7184 42.1506 12.1489 42.1506 10.5317 42.1506C10.5691 41.6742 10.6065 41.1979 10.645 40.7071Z" fill="#AEAEB1"/>
<path d="M50.6201 29.6402C50.1693 30.1976 49.653 30.6653 49.0851 31.1378C48.7792 31.3969 48.496 31.6669 48.215 31.9453C47.5611 32.5909 46.8783 33.2153 46.1992 33.8417C45.8342 34.1792 45.4789 34.5225 45.1317 34.8733C44.9394 35.0459 44.7326 35.1805 44.5049 35.318C44.3667 34.2478 44.3667 34.2478 44.6787 33.8395C44.9137 33.6476 45.1589 33.4727 45.4108 33.2971C45.532 33.1853 45.65 33.0709 45.7647 32.9542C46.1583 32.5654 46.5693 32.1916 46.9821 31.8175C48.0392 30.9022 48.0392 30.9022 48.9816 29.9075C49.1479 29.7364 49.1479 29.7364 49.523 29.6642C49.8908 29.643 50.2516 29.6325 50.6201 29.6402Z" fill="#34AEF0"/>
<path d="M7.02096 29.6401C7.38324 29.7845 7.70224 29.9607 8.03307 30.1514C9.25513 30.8148 10.7336 31.2568 12.1912 31.2934C13.5749 31.3541 13.5749 31.3541 14.0223 31.7458C14.3944 32.192 14.6573 32.675 14.9231 33.1709C15.1391 33.5185 15.4255 33.7808 15.7407 34.0669C15.6847 34.1622 15.6847 34.1622 15.6275 34.2594C15.0634 34.1918 14.5523 34.128 14.1544 33.7609C14.0262 33.5942 13.9009 33.4259 13.7784 33.2561C13.2957 32.6245 12.6294 32.2304 11.7772 32.046C11.5018 31.997 11.2269 31.952 10.9491 31.9137C10.1982 31.7653 9.50558 31.4832 8.8187 31.1919C8.74206 31.1605 8.66543 31.1291 8.58647 31.0968C7.88598 30.8009 7.24608 30.4584 6.90771 29.8326C6.94509 29.7691 6.98246 29.7056 7.02096 29.6401Z" fill="#B7ADBC"/>
<path d="M7.36085 26.9456C7.47874 27.1382 7.58553 27.3263 7.67271 27.5305C8.03713 28.3623 8.72943 28.8559 9.66111 29.2312C9.87451 29.3061 10.0893 29.3782 10.3052 29.4477C10.4139 29.4833 10.5227 29.5189 10.6347 29.5556C11.4561 29.8067 12.2713 29.935 13.1363 30.0251C13.2484 30.3427 13.3605 30.6603 13.476 30.9875C11.4155 30.7906 8.93677 30.5467 7.46702 29.147C7.12688 28.7181 6.98827 28.3718 6.98573 27.8538C6.98383 27.7644 6.98194 27.6749 6.97998 27.5828C7.0273 27.2927 7.13415 27.1616 7.36085 26.9456Z" fill="#B6ACBC"/>
<path d="M17.0996 35.4142C17.1764 35.4562 17.2532 35.4981 17.3323 35.5413C17.5541 35.6619 17.7763 35.7819 17.9989 35.9014C18.2085 36.0143 18.4173 36.1282 18.6244 36.2443C19.4353 36.6846 20.404 37.0928 21.3723 37.1716C21.6294 37.2427 21.6294 37.2427 21.8153 37.5358C21.866 37.6296 21.9168 37.7235 21.9691 37.8201C21.4192 37.8754 20.8693 37.9302 20.3192 37.9846C20.1324 38.0031 19.9456 38.0218 19.7588 38.0406C19.4892 38.0677 19.2196 38.0943 18.95 38.1208C18.8674 38.1293 18.7848 38.1377 18.6997 38.1464C18.2004 38.1949 17.7154 38.2129 17.2129 38.205C17.2134 38.1376 17.214 38.0701 17.2147 38.0007C17.217 37.6939 17.2185 37.3871 17.2199 37.0803C17.2209 36.9742 17.2218 36.868 17.2228 36.7587C17.2232 36.6561 17.2235 36.5534 17.2239 36.4476C17.2245 36.3534 17.2251 36.2592 17.2257 36.1621C17.2132 35.9027 17.1682 35.6668 17.0996 35.4142Z" fill="#B6ACBB"/>
<path d="M10.5317 42.5356C11.9892 42.5356 13.4466 42.5356 14.9482 42.5356C14.5974 43.2809 14.0946 43.776 13.2266 44.105C12.7386 44.2646 12.2965 44.3505 11.7774 44.2678C11.157 43.9893 10.8636 43.5582 10.603 43.0216C10.5317 42.8243 10.5317 42.8243 10.5317 42.5356Z" fill="#817688"/>
<path d="M102.486 28.1004C102.897 28.1004 103.308 28.1004 103.732 28.1004C103.732 29.5612 103.732 31.0221 103.732 32.5272C103.32 32.5272 102.909 32.5272 102.486 32.5272C102.486 31.0663 102.486 29.6055 102.486 28.1004Z" fill="black"/>
<path d="M39.9752 38.3013C40.0125 38.3013 40.0499 38.3013 40.0884 38.3013C40.2072 39.352 40.2072 39.352 39.9677 39.7561C39.7565 39.9584 39.5288 40.1379 39.2957 40.3222C39.0185 40.568 38.7471 40.8183 38.4747 41.068C38.4051 41.1306 38.3355 41.1933 38.2639 41.2578C37.8715 41.6104 37.8715 41.6104 37.5236 41.9943C37.3242 42.198 37.1785 42.2234 36.8751 42.2709C36.7856 42.2851 36.6962 42.2992 36.604 42.3138C36.328 42.3458 36.0633 42.3584 35.7852 42.3431C35.9457 42.0301 36.1391 41.8318 36.4292 41.5973C36.7991 41.2909 37.1423 40.975 37.4789 40.6425C37.8314 40.3011 38.1962 39.9695 38.5599 39.6368C38.986 39.246 39.403 38.8493 39.8137 38.4467C39.867 38.3987 39.9203 38.3507 39.9752 38.3013Z" fill="#34ADF0"/>
<path d="M18.4585 26.0795C19.273 26.124 20.0443 26.1998 20.8366 26.3682C20.8284 26.459 20.8203 26.5498 20.8118 26.6433C20.7842 26.9684 20.7605 27.2934 20.7385 27.6187C20.7249 27.792 20.7049 27.9649 20.684 28.1376C20.6361 28.7083 20.6361 28.7083 20.9255 29.209C21.1499 29.401 21.3759 29.5729 21.6293 29.7364C21.0914 29.7364 20.843 29.4367 20.4624 29.1345C19.5927 28.3816 18.4585 27.2043 18.4585 26.0795Z" fill="#F7F6F8"/>
<path d="M14.9483 13.954C14.9857 14.0493 15.0231 14.1445 15.0616 14.2427C15.2457 14.213 15.4297 14.1828 15.6136 14.1525C15.7673 14.1273 15.7673 14.1273 15.9242 14.1017C16.194 14.0599 16.194 14.0599 16.4205 13.954C16.084 15.0675 15.5584 16.059 14.3679 16.6786C13.8902 16.9137 13.515 17.0476 12.9595 17.0515C12.8706 17.0529 12.7817 17.0543 12.6901 17.0557C12.457 17.0335 12.457 17.0335 12.2305 16.841C12.3017 16.8163 12.3729 16.7916 12.4463 16.7662C13.6592 16.3052 14.2591 15.6408 14.732 14.5987C14.817 14.3845 14.8898 14.1743 14.9483 13.954Z" fill="#B4A9B9"/>
<path d="M15.8936 34.9218C16.215 35.1398 16.3751 35.2849 16.5337 35.6067C16.5549 35.9736 16.5549 35.9736 16.5337 36.2804C16.4395 36.2195 16.4395 36.2195 16.3434 36.1574C16.2614 36.1047 16.1794 36.052 16.0948 35.9977C16.0134 35.9452 15.9319 35.8927 15.848 35.8387C15.2134 35.4477 14.2334 35.5291 13.4761 35.6067C13.1355 35.7064 12.8609 35.8206 12.5569 35.9826C12.3436 36.0879 12.3436 36.0879 12.0039 36.0879C12.1957 35.472 12.7569 35.1707 13.3628 34.8489C14.1271 34.6018 15.1847 34.583 15.8936 34.9218Z" fill="#E1E0E2"/>
<path d="M10.8715 23C10.9089 23.0635 10.9463 23.127 10.9848 23.1925C11.3772 23.1448 11.3772 23.1448 11.7775 23.0962C11.3409 23.6171 10.8654 24.0903 10.3527 24.5582C10.1491 24.7591 9.97536 24.9499 9.80148 25.1679C9.0955 26.0429 9.0955 26.0429 8.62304 26.1588C8.33806 26.1578 8.09001 26.1379 7.81396 26.0795C8.58067 25.0447 9.42908 24.0667 10.6451 23.3849C10.7198 23.3849 10.7945 23.3849 10.8715 23.3849C10.8715 23.2579 10.8715 23.1309 10.8715 23Z" fill="#B7ADBC"/>
<path d="M14.4456 35.4684C14.5282 35.4664 14.6108 35.4645 14.6958 35.4625C15.2829 35.463 15.6172 35.5663 16.0806 35.8954C16.1966 36.0219 16.3104 36.15 16.4203 36.2803C16.2877 36.2827 16.1551 36.2852 16.0185 36.2876C15.5276 36.2967 15.0367 36.3063 14.5458 36.3162C14.3332 36.3203 14.1205 36.3243 13.9079 36.3282C13.6026 36.3337 13.2973 36.3399 12.9921 36.3461C12.8966 36.3477 12.8012 36.3493 12.7029 36.351C12.2248 36.3508 12.2248 36.3508 11.7773 36.4728C11.7844 36.2984 11.7844 36.2984 11.8906 36.0879C12.1587 35.974 12.4046 35.887 12.6833 35.7992C12.8031 35.7495 12.923 35.6999 13.0465 35.6488C13.5135 35.4781 13.9425 35.4642 14.4456 35.4684Z" fill="#ADACB0"/>
<path d="M50.6391 28.8545C51.1426 28.8369 51.4807 28.8727 51.8658 29.159C51.8658 29.286 51.8658 29.4131 51.8658 29.5439C51.4148 29.5856 50.9636 29.6267 50.5125 29.6673C50.3593 29.6811 50.2063 29.6951 50.0532 29.7093C49.2581 29.7827 48.476 29.8535 47.6758 29.8326C47.997 29.4322 48.2702 29.1361 48.8436 29.0267C49.02 29.0035 49.197 28.9835 49.3744 28.9665C49.5032 28.9509 49.5032 28.9509 49.6345 28.935C49.9688 28.8977 50.3031 28.8761 50.6391 28.8545Z" fill="#A4D5F1"/>
<path d="M25.7064 28.6237C26.0462 28.6779 26.0462 28.6779 26.3151 28.8102C26.6009 29.2025 26.5827 29.5765 26.4991 30.0251C26.3151 30.3259 26.3151 30.3259 26.0462 30.5063C25.6432 30.5705 25.4521 30.5483 25.0977 30.374C24.812 29.9817 24.8301 29.6077 24.9137 29.159C25.1346 28.7981 25.2351 28.6988 25.7064 28.6237Z" fill="#27A7ED"/>
<path d="M12.2305 32.046C13.8593 31.9348 13.8593 31.9348 14.3377 32.2697C14.6452 32.589 14.8539 32.9471 15.0636 33.3171C15.2463 33.6003 15.4888 33.8263 15.741 34.0669C15.7037 34.1305 15.6663 34.194 15.6278 34.2594C15.0637 34.1918 14.5526 34.128 14.1547 33.7609C14.0267 33.5945 13.902 33.4261 13.7805 33.2561C13.3886 32.748 12.7982 32.4044 12.2305 32.046Z" fill="#F7F6F8"/>
<path d="M28.6509 33.2008C28.7233 33.2266 28.7957 33.2524 28.8703 33.279C29.2495 33.4039 29.6333 33.5061 30.0222 33.6068C30.2363 33.682 30.2363 33.682 30.3495 33.8744C30.2703 34.1253 30.184 34.3682 30.0877 34.6142C30.0361 34.7489 29.9846 34.8836 29.9333 35.0184C29.9081 35.084 29.8829 35.1497 29.8569 35.2174C29.7491 35.5058 29.6526 35.7964 29.5568 36.0878C29.4447 36.0878 29.3326 36.0878 29.2171 36.0878C29.2107 35.962 29.2107 35.962 29.2043 35.8337C29.1535 35.0516 29.0163 34.3381 28.7641 33.5857C28.7258 33.4576 28.6878 33.3293 28.6509 33.2008Z" fill="#B6ABBB"/>
<path d="M1.13268 28.5816C1.17005 28.5816 1.20742 28.5816 1.24592 28.5816C1.25702 28.6385 1.26811 28.6955 1.27954 28.7541C1.38756 29.2392 1.49503 29.5739 1.92538 29.9289C2.31346 30.1411 2.63068 30.1418 3.08613 30.1334C3.26919 30.1308 3.26919 30.1308 3.45594 30.1281C3.54879 30.1259 3.64163 30.1237 3.73728 30.1214C3.04334 30.8793 3.04334 30.8793 2.4916 30.9875C2.21778 31.0142 2.21778 31.0142 1.92538 30.9875C1.70067 30.8258 1.70067 30.8258 1.50072 30.6146C1.43357 30.5453 1.36642 30.4761 1.29724 30.4048C1.02004 30.0894 1.00405 29.8979 1.00528 29.5079C1.00499 29.4158 1.0047 29.3238 1.00439 29.2289C1.01768 28.9972 1.05491 28.803 1.13268 28.5816Z" fill="#B5ABBA"/>
<path d="M12.0038 36.2803C13.4613 36.2803 14.9187 36.2803 16.4203 36.2803C16.4764 36.4709 16.4764 36.4709 16.5336 36.6653C14.964 36.6653 13.3945 36.6653 11.7773 36.6653C11.8521 36.5382 11.9268 36.4112 12.0038 36.2803Z" fill="#371A45"/>
<path d="M42.5936 34.8428C43.0325 34.933 43.0325 34.933 43.2589 35.2217C43.2983 35.536 43.2911 35.7381 43.1386 36.0277C42.9192 36.1841 42.9192 36.1841 42.5299 36.2322C42.1265 36.1841 42.1265 36.1841 41.8505 36.0277C41.6201 35.7302 41.6049 35.5717 41.6735 35.2217C41.9278 34.8706 42.129 34.8084 42.5936 34.8428Z" fill="#3C254F"/>
<path d="M10.645 40.7071C10.9847 40.8033 10.9847 40.8033 11.1338 41.0165C11.1804 41.1029 11.2269 41.1894 11.2749 41.2785C11.4744 41.6483 11.4744 41.6483 11.7774 41.9581C12.2324 42.0127 12.6915 42.0072 13.1505 42.0123C13.2769 42.017 13.4033 42.0218 13.5336 42.0267C14.2122 42.0339 14.6299 42.0062 15.1526 41.6179C15.2766 41.5095 15.3986 41.3992 15.5145 41.2845C15.5705 41.3798 15.5705 41.3798 15.6277 41.477C15.5156 41.6993 15.4035 41.9216 15.288 42.1506C13.7184 42.1506 12.1489 42.1506 10.5317 42.1506C10.5691 41.6742 10.6065 41.1979 10.645 40.7071Z" fill="#857B8C"/>
<path d="M19.4781 13.569C19.7046 13.7615 19.7046 13.7615 19.7471 14.0863C19.7046 14.4351 19.7046 14.4351 19.5206 14.6697C19.1745 14.8632 18.9791 14.8716 18.5722 14.8201C18.3527 14.7178 18.3527 14.7178 18.2324 14.5314C18.2462 14.2038 18.2778 13.9571 18.4731 13.6713C18.8098 13.5091 19.1006 13.5399 19.4781 13.569Z" fill="#BBB3BF"/>
<path d="M42.0137 37.6276C42.0429 37.9131 42.0441 38.067 41.8642 38.314C41.4576 38.6954 41.1186 38.976 40.5415 39.1674C40.5415 38.818 40.5415 38.4687 40.5415 38.1088C40.7655 38.0284 40.9897 37.9482 41.2139 37.8682C41.3387 37.8236 41.4635 37.7789 41.5921 37.7329C41.9004 37.6276 41.9004 37.6276 42.0137 37.6276Z" fill="#CF3135"/>
<path d="M39.8617 35.318C39.6602 35.7072 39.3639 36.036 39.069 36.3766C38.3187 36.3044 38.3187 36.3044 37.9365 36.0879C38.0799 35.9771 38.2239 35.8669 38.3683 35.7571C38.4484 35.6957 38.5285 35.6342 38.6111 35.571C39.015 35.2973 39.3632 35.3086 39.8617 35.318Z" fill="#D42F31"/>
<path d="M23.7812 30.5063C23.8564 30.5516 23.9316 30.5968 24.009 30.6435C24.4114 30.8236 24.787 30.8698 25.2321 30.9093C25.3498 30.9211 25.3498 30.9211 25.4699 30.9331C25.6618 30.9523 25.8539 30.97 26.0461 30.9875C26.0461 31.2098 26.0461 31.4321 26.0461 31.6611C25.1987 31.5291 24.4543 31.2837 23.668 30.9875C23.7053 30.8287 23.7427 30.6699 23.7812 30.5063Z" fill="#B0A5B6"/>
<path d="M49.339 29.0567C49.4516 29.0576 49.5641 29.0585 49.6801 29.0594C49.8091 29.0611 49.8091 29.0611 49.9407 29.0628C49.3873 29.7015 49.3873 29.7015 48.9356 29.8266C48.515 29.8338 48.0964 29.8388 47.6758 29.8326C47.7811 29.7217 47.8874 29.6116 47.9943 29.5018C48.0534 29.4404 48.1125 29.379 48.1734 29.3158C48.5148 29.0214 48.8805 29.0522 49.339 29.0567Z" fill="#BFE5F9"/>
<path d="M24.9138 29.4477C24.9722 29.4953 25.0306 29.543 25.0908 29.592C25.4628 29.7866 25.7297 29.763 26.1595 29.7364C26.2716 29.7046 26.3837 29.6729 26.4992 29.6402C26.4318 30.1561 26.4318 30.1561 26.2515 30.398C25.9394 30.5626 25.7262 30.5499 25.3668 30.5063C25.0978 30.3559 25.0978 30.3559 24.9138 30.1213C24.8855 29.7605 24.8855 29.7605 24.9138 29.4477Z" fill="#2974B1"/>
<path d="M27.0652 29.3514C27.3901 29.5741 27.5117 29.7188 27.6385 30.0612C27.6313 30.4152 27.6176 30.4791 27.3766 30.7408C27.0652 30.9874 27.0652 30.9874 26.7255 30.9874C26.6799 30.394 26.8423 29.9118 27.0652 29.3514Z" fill="#B2A7B7"/>
<path d="M6.34142 28.4854C6.54139 28.7403 6.63462 28.8655 6.68115 29.159C6.61444 29.3395 6.61444 29.3395 6.502 29.5233C6.46178 29.5902 6.42156 29.6571 6.38013 29.7261C6.33699 29.795 6.29386 29.8639 6.24941 29.9349C6.18668 30.0388 6.18668 30.0388 6.12268 30.1448C5.94458 30.4375 5.76418 30.7128 5.54872 30.9874C5.4366 30.9874 5.32449 30.9874 5.20898 30.9874C5.3707 30.6404 5.53984 30.2965 5.7115 29.9529C5.94952 29.4694 6.15527 28.9849 6.34142 28.4854Z" fill="#ACA0B2"/>
<path d="M18.0059 24.8284C18.5551 24.9635 19.0379 25.1685 19.5444 25.3889C19.8542 25.5171 20.1663 25.6131 20.4972 25.6945C20.1609 25.7823 19.9237 25.7925 19.5789 25.737C19.4935 25.7237 19.4081 25.7103 19.3201 25.6966C19.2321 25.682 19.1441 25.6675 19.0534 25.6524C18.9636 25.6382 18.8738 25.624 18.7813 25.6094C18.5604 25.5743 18.3397 25.5383 18.1191 25.5021C18.0817 25.2798 18.0444 25.0575 18.0059 24.8284Z" fill="#F2F0F3"/>
<path d="M26.6123 25.3096C26.8739 25.3096 27.1355 25.3096 27.405 25.3096C27.5045 25.9017 27.5045 25.9017 27.5182 26.0795C27.2864 26.2765 26.8043 26.2431 26.499 26.272C26.5364 25.9544 26.5738 25.6368 26.6123 25.3096Z" fill="#B5AABA"/>
<path d="M4.07681 30.2176C4.26366 30.3129 4.45052 30.4081 4.64303 30.5063C4.49602 30.785 4.35618 30.9857 4.07681 31.1799C3.82069 31.2292 3.82069 31.2292 3.54598 31.2461C3.45445 31.2524 3.36292 31.2587 3.26862 31.2653C3.19899 31.2689 3.12936 31.2725 3.05762 31.2762C3.10272 31.232 3.14783 31.1878 3.19431 31.1423C3.50056 30.8409 3.80275 30.5411 4.07681 30.2176Z" fill="#B0A5B6"/>
<path d="M24.5738 28.5816C24.6485 28.6134 24.7233 28.6451 24.8003 28.6778C24.7419 28.7672 24.6835 28.8565 24.6233 28.9485C24.3735 29.4306 24.4842 29.9031 24.5738 30.4101C24.234 30.3138 24.234 30.3138 24.0996 30.1635C23.9194 29.7041 23.9256 29.3078 24.1633 28.8763C24.3473 28.6778 24.3473 28.6778 24.5738 28.5816Z" fill="#3C8BC5"/>
<path d="M42.2402 35.1255C42.5374 35.1616 42.5374 35.1616 42.8064 35.2218C42.8772 35.4503 42.8772 35.4503 42.9196 35.703C42.8449 35.7665 42.7701 35.83 42.6931 35.8954C42.3959 35.8593 42.3959 35.8593 42.1269 35.7992C42.0561 35.5706 42.0561 35.5706 42.0137 35.318C42.0884 35.2545 42.1632 35.191 42.2402 35.1255Z" fill="#289EE4"/>
<path d="M51.2996 28.9666C51.4491 28.9983 51.5986 29.0301 51.7526 29.0628C51.79 29.2216 51.8273 29.3804 51.8658 29.544C51.4921 29.544 51.1184 29.544 50.7334 29.544C50.9203 29.3534 51.1071 29.1629 51.2996 28.9666Z" fill="#BAE1F8"/>
<path d="M23.668 26.272C24.378 26.272 25.088 26.272 25.8196 26.272C25.8196 26.3672 25.8196 26.4625 25.8196 26.5607C25.5458 26.5497 25.2722 26.5375 24.9986 26.5246C24.9214 26.5216 24.8441 26.5186 24.7646 26.5156C24.3192 26.4935 24.0769 26.4457 23.668 26.272Z" fill="#E7E4E9"/>
<path d="M4.75612 28.2929C4.83086 28.2929 4.9056 28.2929 4.98261 28.2929C4.85051 28.8634 4.6706 29.3888 4.41639 29.9289C4.30428 29.8971 4.19217 29.8654 4.07666 29.8327C4.27151 29.3083 4.51231 28.8018 4.75612 28.2929Z" fill="#4F365C"/>
<path d="M43.146 34.3557C43.7971 34.3436 43.7971 34.3436 44.0519 34.4519C44.0519 34.6424 44.0519 34.833 44.0519 35.0293C43.9398 35.0293 43.8277 35.0293 43.7122 35.0293C43.5552 34.8819 43.5552 34.8819 43.4079 34.6925C43.3584 34.63 43.3089 34.5674 43.2579 34.503C43.2025 34.4301 43.2025 34.4301 43.146 34.3557Z" fill="#CD3338"/>
<path d="M6.34168 28.4854C6.65357 28.8829 6.65357 28.8829 6.68142 29.159C6.51863 29.4718 6.51863 29.4718 6.34168 29.7364C6.22957 29.7046 6.11746 29.6729 6.00195 29.6402C6.03712 29.5018 6.07256 29.3635 6.10812 29.2252C6.12783 29.1481 6.14753 29.0711 6.16784 28.9917C6.22844 28.7741 6.22844 28.7741 6.34168 28.4854Z" fill="#A497AB"/>
<path d="M27.0654 29.3514C27.5114 29.6712 27.5114 29.6712 27.5467 30.001C27.5373 30.0725 27.528 30.1439 27.5184 30.2175C27.3315 30.2493 27.1447 30.2811 26.9521 30.3138C26.9895 29.9962 27.0269 29.6786 27.0654 29.3514Z" fill="#F4F3F5"/>
<path d="M15.5143 41.2845C15.5516 41.3481 15.589 41.4116 15.6275 41.477C15.5215 41.7041 15.4086 41.929 15.2878 42.1507C14.9888 42.1507 14.6899 42.1507 14.3818 42.1507C14.4636 42.0971 14.5453 42.0435 14.6296 41.9883C14.9452 41.7677 15.2296 41.5334 15.5143 41.2845Z" fill="#7B6F83"/>
<path d="M13.929 7.60254C14.0831 7.86448 14.0087 8.00511 13.9361 8.28821C13.914 8.37579 13.892 8.46337 13.8693 8.5536C13.8516 8.62084 13.8339 8.68808 13.8157 8.75735C13.6289 8.75735 13.442 8.75735 13.2495 8.75735C13.4737 8.37626 13.698 7.99518 13.929 7.60254Z" fill="#B1A6B7"/>
<path d="M31.5949 3.36819C31.8239 3.46 32.0511 3.5554 32.2743 3.6569C31.8533 3.77615 31.6584 3.71177 31.2339 3.61479C31.1109 3.58713 30.9878 3.55947 30.861 3.53097C30.7668 3.50901 30.6727 3.48705 30.5757 3.46443C30.9771 3.27805 31.1501 3.25121 31.5949 3.36819Z" fill="#C7BECA"/>
<path d="M26.046 28.6778C26.1582 28.7413 26.2703 28.8048 26.3858 28.8703C26.3858 28.9338 26.3858 28.9973 26.3858 29.0627C26.3161 29.0558 26.2465 29.0488 26.1748 29.0417C26.0832 29.0328 25.9917 29.0238 25.8974 29.0146C25.7614 29.0012 25.7614 29.0012 25.6227 28.9876C25.3531 28.9619 25.3531 28.9619 25.0269 28.9665C25.3218 28.6323 25.5728 28.6359 26.046 28.6778Z" fill="#E5EAF1"/>
<path d="M17.0996 35.4142C17.7649 35.7751 17.7649 35.7751 17.8923 35.9917C17.7055 36.0234 17.5186 36.0552 17.3261 36.0879C17.2514 35.8656 17.1766 35.6433 17.0996 35.4142Z" fill="#F0EEF1"/>
</svg>
